<svg width="81" height="80" viewBox="0 0 81 80" fill="none" xmlns="http://www.w3.org/2000/svg">
<g clip-path="url(#clip0_115_657)">
<path d="M74.0232 17.4333L49.4432 5.72328C44.0326 2.4914 37.2982 2.43406 31.8332 5.57328L6.97667 17.4333C6.88339 17.48 6.78667 17.53 6.69667 17.5833C0.797921 20.9561 -1.24989 28.4722 2.12292 34.3709C3.2662 36.3706 4.94792 38.0091 6.97667 39.1L13.8334 42.3667V58.7C13.8375 66.0036 18.5898 72.4561 25.5634 74.6267C30.4164 76.0306 35.4484 76.718 40.5001 76.6667C45.551 76.7233 50.5831 76.0417 55.4368 74.6434C62.4104 72.473 67.1628 66.0203 67.1668 58.7167V42.36L73.8335 39.1733V66.6666C73.8335 68.5075 75.3259 69.9998 77.1668 69.9998C79.0078 69.9998 80.5001 68.5075 80.5001 66.6666V26.6666C80.5223 22.7523 77.4317 19.1364 74.0232 17.4333ZM60.5 58.7167C60.5017 63.0853 57.6673 66.9495 53.5 68.26C49.274 69.4675 44.8948 70.0536 40.5 70C36.1051 70.0536 31.7259 69.4675 27.5 68.26C23.3326 66.9494 20.4982 63.0853 20.5 58.7167V45.5434L31.5567 50.8102C34.2848 52.4302 37.4006 53.2814 40.5734 53.2734C43.5934 53.2948 46.5626 52.4953 49.1634 50.9602L60.5 45.5433V58.7167ZM71.1667 33.0833L46.0267 45.0833C42.5214 47.1244 38.1765 47.0666 34.7267 44.9333L10.13 33.2333C7.38823 31.7548 6.36417 28.3337 7.84261 25.5922C8.34261 24.665 9.0923 23.8964 10.0067 23.3733L34.99 11.44C38.4964 9.40343 42.8389 9.46109 46.29 11.59L70.87 23.3C72.6776 24.3037 73.8085 26.1992 73.8332 28.2667C73.8365 30.2252 72.8281 32.0464 71.1667 33.0833Z" fill="#38B792"/>
</g>
<defs>
<clipPath id="clip0_115_657">
<rect width="80" height="80" fill="white" transform="translate(0.5)"/>
</clipPath>
</defs>
</svg>
