<svg width="504" height="439" viewBox="0 0 504 439" fill="none" xmlns="http://www.w3.org/2000/svg">
<path d="M68.8 335.092C84.304 344.044 84.304 358.564 68.8 367.492C53.296 376.42 28.132 376.444 12.616 367.492C-2.9 358.54 -2.9 344.008 12.616 335.092C28.132 326.176 53.2 326.128 68.8 335.092Z" fill="#E0E0E0"/>
<path d="M102.808 355.672L243.52 436.912C245.13 437.729 246.91 438.155 248.716 438.155C250.522 438.155 252.302 437.729 253.912 436.912L492.112 299.392C494.98 297.736 494.98 295.048 492.112 293.392L351.4 212.14C349.79 211.323 348.01 210.897 346.204 210.897C344.398 210.897 342.618 211.323 341.008 212.14L102.808 349.672C99.9279 351.328 99.9279 354.016 102.808 355.672Z" fill="#E0E0E0"/>
<path d="M457.936 270.256L448.132 264.592C448.132 264.592 442.288 240.34 444.616 218.524C447.892 187.852 464.392 174.496 475.756 178.924C483.316 181.9 485.656 190.492 472.948 208.768C465.46 219.58 456.256 242.02 457.936 270.256Z" fill="#38B792"/>
<g opacity="0.3">
<path d="M457.936 270.256L448.132 264.592C448.132 264.592 442.288 240.34 444.616 218.524C447.892 187.852 464.392 174.496 475.756 178.924C483.316 181.9 485.656 190.492 472.948 208.768C465.46 219.58 456.256 242.02 457.936 270.256Z" fill="black"/>
</g>
<path d="M453.868 258.4H454C454.088 258.384 454.171 258.351 454.246 258.302C454.321 258.254 454.386 258.191 454.436 258.117C454.486 258.044 454.521 257.961 454.539 257.873C454.557 257.786 454.557 257.696 454.54 257.608C449.164 229.324 459.052 197.524 471.34 184.3C471.456 184.165 471.516 183.991 471.505 183.813C471.495 183.635 471.416 183.469 471.285 183.348C471.153 183.228 470.981 183.164 470.803 183.169C470.625 183.174 470.456 183.248 470.332 183.376C457.876 196.852 447.796 229.156 453.256 257.86C453.283 258.006 453.357 258.138 453.468 258.236C453.579 258.334 453.72 258.392 453.868 258.4Z" fill="white"/>
<path d="M483.616 285.088C485.164 285.868 489.28 282.34 490.432 281.488C492.398 279.997 493.947 278.026 494.932 275.764C496.028 273.194 496.3 270.347 495.712 267.616C495.411 266.174 495.01 264.755 494.512 263.368L493.108 259.264C492.552 257.943 492.27 256.522 492.28 255.088C492.496 252.208 494.932 250.084 497.152 248.248C499.552 246.208 502.12 243.556 501.952 240.124C501.63 237.465 500.436 234.988 498.556 233.08C496.816 231.088 494.764 229.348 493.168 227.224C491.925 225.75 491.222 223.896 491.176 221.968C491.275 220.78 491.613 219.625 492.172 218.572C493.458 216.377 494.566 214.081 495.484 211.708C496.204 209.308 495.928 206.272 493.972 204.652C492.352 203.32 490.06 203.236 487.972 203.452C486.034 203.79 484.192 204.543 482.572 205.66C477.268 208.972 474.484 215.596 468.808 218.212C466.549 219.045 464.24 219.738 461.896 220.288C459.592 221.02 457.276 222.328 456.316 224.524C454.396 228.88 458.608 233.908 457.336 238.492C456.22 242.548 452.428 244.264 450.436 247.972C449.62 249.6 449.354 251.449 449.68 253.24C450.02 256.277 450.915 259.226 452.32 261.94C453.898 264.731 455.649 267.421 457.564 269.992C457.564 269.992 483.376 284.968 483.616 285.088Z" fill="#38B792"/>
<g opacity="0.15">
<path d="M483.616 285.088C485.164 285.868 489.28 282.34 490.432 281.488C492.398 279.997 493.947 278.026 494.932 275.764C496.028 273.194 496.3 270.347 495.712 267.616C495.411 266.174 495.01 264.755 494.512 263.368L493.108 259.264C492.552 257.943 492.27 256.522 492.28 255.088C492.496 252.208 494.932 250.084 497.152 248.248C499.552 246.208 502.12 243.556 501.952 240.124C501.63 237.465 500.436 234.988 498.556 233.08C496.816 231.088 494.764 229.348 493.168 227.224C491.925 225.75 491.222 223.896 491.176 221.968C491.275 220.78 491.613 219.625 492.172 218.572C493.458 216.377 494.566 214.081 495.484 211.708C496.204 209.308 495.928 206.272 493.972 204.652C492.352 203.32 490.06 203.236 487.972 203.452C486.034 203.79 484.192 204.543 482.572 205.66C477.268 208.972 474.484 215.596 468.808 218.212C466.549 219.045 464.24 219.738 461.896 220.288C459.592 221.02 457.276 222.328 456.316 224.524C454.396 228.88 458.608 233.908 457.336 238.492C456.22 242.548 452.428 244.264 450.436 247.972C449.62 249.6 449.354 251.449 449.68 253.24C450.02 256.277 450.915 259.226 452.32 261.94C453.898 264.731 455.649 267.421 457.564 269.992C457.564 269.992 483.376 284.968 483.616 285.088Z" fill="black"/>
</g>
<path d="M468.604 277.264C468.694 277.256 468.782 277.231 468.862 277.19C468.942 277.148 469.013 277.091 469.071 277.022C469.129 276.953 469.173 276.873 469.2 276.787C469.227 276.7 469.236 276.61 469.228 276.52C466.744 249.616 477.952 219.208 486.748 210.088C486.824 210.027 486.885 209.951 486.93 209.865C486.974 209.779 486.999 209.684 487.004 209.587C487.008 209.491 486.992 209.394 486.957 209.304C486.921 209.214 486.867 209.132 486.798 209.064C486.729 208.997 486.646 208.945 486.555 208.911C486.464 208.878 486.367 208.865 486.27 208.872C486.173 208.879 486.079 208.907 485.994 208.953C485.909 208.999 485.835 209.063 485.776 209.14C476.788 218.44 465.376 249.364 467.872 276.64C467.887 276.819 467.973 276.986 468.11 277.102C468.247 277.219 468.424 277.277 468.604 277.264Z" fill="white"/>
<path d="M471.28 244.084H471.484C477.78 241.994 484.287 240.606 490.888 239.944C491.068 239.926 491.233 239.837 491.347 239.698C491.462 239.559 491.517 239.38 491.5 239.2C491.496 239.111 491.473 239.023 491.433 238.942C491.393 238.862 491.337 238.791 491.268 238.733C491.2 238.676 491.12 238.633 491.033 238.608C490.947 238.583 490.857 238.576 490.768 238.588C484.051 239.272 477.428 240.684 471.016 242.8C470.867 242.859 470.743 242.968 470.667 243.109C470.59 243.25 470.565 243.413 470.597 243.57C470.628 243.728 470.714 243.869 470.839 243.969C470.964 244.07 471.12 244.123 471.28 244.12V244.084Z" fill="white"/>
<path d="M107.608 340.744C107.755 342.737 108.37 344.668 109.402 346.379C110.434 348.091 111.854 349.535 113.548 350.596L242.8 425.2C244.641 426.127 246.673 426.609 248.734 426.609C250.795 426.609 252.827 426.127 254.668 425.2L482.2 293.836C483.994 292.891 485.496 291.474 486.543 289.737C487.591 288.001 488.145 286.012 488.145 283.984C488.145 281.956 487.591 279.967 486.543 278.231C485.496 276.495 483.994 275.077 482.2 274.132L352.972 199.504C351.134 198.569 349.1 198.082 347.038 198.082C344.976 198.082 342.942 198.569 341.104 199.504L113.548 330.88C111.854 331.943 110.434 333.39 109.402 335.104C108.37 336.817 107.755 338.749 107.608 340.744Z" fill="#37474F"/>
<path d="M113.548 337.732L242.8 412.36C244.638 413.295 246.672 413.782 248.734 413.782C250.796 413.782 252.83 413.295 254.668 412.36L482.2 280.984C485.488 279.088 485.488 276.016 482.2 274.132L352.972 199.504C351.134 198.569 349.1 198.082 347.038 198.082C344.976 198.082 342.942 198.569 341.104 199.504L113.548 330.88C110.272 332.8 110.272 335.848 113.548 337.732Z" fill="#455A64"/>
<path d="M248.716 413.788V426.64C246.627 426.694 244.56 426.206 242.716 425.224L113.548 350.596C111.807 349.681 110.34 348.32 109.298 346.653C108.255 344.985 107.673 343.071 107.612 341.105C107.551 339.139 108.013 337.192 108.95 335.463C109.888 333.734 111.267 332.285 112.948 331.264C110.284 333.172 110.548 335.968 113.548 337.744L242.8 412.372C244.622 413.334 246.656 413.821 248.716 413.788Z" fill="#263238"/>
<path d="M102.04 331.096C98.968 329.32 99.136 326.296 99.136 322.54V144.04C99.2606 141.976 99.8685 139.969 100.911 138.183C101.953 136.397 103.4 134.88 105.136 133.756L332.632 2.38007C334.397 1.44483 336.357 0.937964 338.354 0.90044C340.351 0.862917 342.329 1.29579 344.128 2.16407C347.212 3.94007 347.044 6.96407 347.044 10.7321V189.22C346.932 191.28 346.335 193.285 345.303 195.072C344.271 196.859 342.833 198.377 341.104 199.504L113.548 330.88C111.782 331.818 109.819 332.327 107.82 332.364C105.82 332.402 103.84 331.967 102.04 331.096Z" fill="#37474F"/>
<path d="M347.044 10.72C347.044 6.94003 344.38 5.41603 341.104 7.30003L113.548 138.688C111.79 139.777 110.343 141.303 109.348 143.116L100.888 138.196C101.885 136.381 103.331 134.852 105.088 133.756L332.62 2.38003C334.386 1.44191 336.349 0.933447 338.348 0.895917C340.348 0.858387 342.328 1.29285 344.128 2.16403C347.2 4.00003 347.044 6.94003 347.044 10.72Z" fill="#455A64"/>
<path d="M112.852 331.24C111.151 332.008 109.302 332.392 107.436 332.368C105.57 332.343 103.732 331.909 102.052 331.096C98.98 329.32 99.136 326.296 99.136 322.54V144.04C99.2031 141.975 99.8025 139.962 100.876 138.196L109.348 143.104C108.281 144.873 107.683 146.884 107.608 148.948V327.46C107.608 330.964 109.9 332.548 112.852 331.24Z" fill="#263238"/>
<path d="M116.8 145.528L336.136 18.8922C338.104 17.6922 339.736 18.6762 339.736 20.9442V176.8C339.666 178.04 339.303 179.245 338.677 180.317C338.051 181.389 337.181 182.297 336.136 182.968L116.8 309.568C114.832 310.696 113.2 309.784 113.2 307.504V151.696C113.272 150.457 113.636 149.253 114.262 148.181C114.887 147.109 115.757 146.2 116.8 145.528Z" fill="#FAFAFA"/>
<path d="M130 331.24L341.2 209.284C342.118 208.816 343.134 208.572 344.164 208.572C345.194 208.572 346.21 208.816 347.128 209.284L350.644 211.216C352.288 212.164 352.288 213.7 350.644 214.648L139.444 336.568C138.516 337.045 137.488 337.294 136.444 337.294C135.401 337.294 134.372 337.045 133.444 336.568L129.964 334.66C128.332 333.712 128.332 332.176 130 331.24Z" fill="#263238"/>
<path d="M146.536 341.08L357.736 219.136C358.554 218.667 359.471 218.396 360.412 218.344C361.354 218.292 362.295 218.461 363.16 218.836L418.132 250.588C419.488 251.368 419.26 252.772 417.628 253.72L206.68 375.496C205.859 375.963 204.941 376.234 203.998 376.288C203.056 376.343 202.113 376.178 201.244 375.808L146.044 344.212C144.676 343.432 144.904 342.028 146.536 341.08Z" fill="#263238"/>
<path d="M329.56 270.4L336.184 266.584C336.46 266.428 336.484 266.176 336.184 266.032L329.86 262.432C329.711 262.358 329.547 262.32 329.38 262.32C329.214 262.32 329.049 262.358 328.9 262.432L322.288 266.26C322 266.416 321.976 266.668 322.288 266.812L328.612 270.412C328.76 270.485 328.923 270.522 329.087 270.52C329.252 270.518 329.414 270.477 329.56 270.4ZM319.96 257.2L313.348 261.016C313.06 261.172 313.036 261.424 313.288 261.568L319.612 265.168C319.761 265.242 319.926 265.281 320.092 265.281C320.259 265.281 320.423 265.242 320.572 265.168L327.184 261.34C327.472 261.184 327.496 260.932 327.244 260.788L320.92 257.188C320.765 257.105 320.591 257.062 320.414 257.064C320.238 257.066 320.065 257.113 319.912 257.2H319.96ZM298.588 269.536L287.404 275.992C287.116 276.148 287.092 276.4 287.344 276.544L293.668 280.204C293.817 280.278 293.982 280.317 294.148 280.317C294.315 280.317 294.479 280.278 294.628 280.204L305.824 273.736C306.1 273.58 306.124 273.328 305.824 273.184L299.488 269.584C299.349 269.494 299.19 269.438 299.026 269.422C298.861 269.405 298.694 269.428 298.54 269.488L298.588 269.536ZM310.288 262.78L303.676 266.596C303.4 266.752 303.376 267.004 303.616 267.148L309.952 270.748C310.101 270.822 310.265 270.861 310.432 270.861C310.599 270.861 310.763 270.822 310.912 270.748L317.524 266.92C317.8 266.764 317.824 266.512 317.524 266.368L311.188 262.768C311.044 262.688 310.883 262.642 310.718 262.636C310.554 262.63 310.39 262.663 310.24 262.732L310.288 262.78ZM284.344 277.756L277.732 281.572C277.456 281.74 277.432 281.98 277.672 282.124L284.008 285.724C284.157 285.797 284.322 285.835 284.488 285.835C284.654 285.835 284.819 285.797 284.968 285.724L291.58 281.908C291.856 281.74 291.88 281.5 291.64 281.344L285.304 277.744C285.153 277.653 284.981 277.603 284.805 277.596C284.628 277.59 284.453 277.628 284.296 277.708L284.344 277.756ZM274.684 283.336L268 287.104C267.712 287.272 267.688 287.512 268 287.656L274.324 291.316C274.473 291.39 274.638 291.429 274.804 291.429C274.971 291.429 275.135 291.39 275.284 291.316L281.896 287.5C282.184 287.332 282.208 287.092 281.956 286.936L275.632 283.336C275.483 283.246 275.314 283.194 275.14 283.185C274.966 283.177 274.793 283.212 274.636 283.288L274.684 283.336ZM299.476 298.24L306.1 294.424C306.376 294.256 306.4 294.016 306.1 293.872L299.776 290.272C299.628 290.195 299.463 290.155 299.296 290.155C299.129 290.155 298.964 290.195 298.816 290.272L292.204 294.088C291.916 294.256 291.892 294.496 292.144 294.64L298.468 298.3C298.625 298.358 298.794 298.378 298.961 298.359C299.127 298.341 299.287 298.283 299.428 298.192L299.476 298.24ZM289.816 303.82L296.428 300.004C296.704 299.836 296.74 299.596 296.488 299.452L290.164 295.792C290.014 295.715 289.847 295.675 289.678 295.675C289.509 295.675 289.342 295.715 289.192 295.792L282.58 299.608C282.304 299.776 282.28 300.016 282.58 300.16L288.904 303.76C289.039 303.821 289.186 303.854 289.335 303.856C289.483 303.858 289.631 303.83 289.768 303.772L289.816 303.82ZM280.144 309.4L286.768 305.584C287.044 305.416 287.068 305.176 286.768 305.032L280.444 301.372C280.296 301.295 280.131 301.255 279.964 301.255C279.797 301.255 279.632 301.295 279.484 301.372L272.872 305.2C272.584 305.368 272.56 305.608 272.812 305.752L279.136 309.412C279.289 309.48 279.456 309.51 279.623 309.499C279.79 309.489 279.953 309.438 280.096 309.352L280.144 309.4ZM270.4 314.932L277.012 311.116C277.3 310.948 277.324 310.708 277.012 310.564L270.688 306.904C270.54 306.827 270.375 306.787 270.208 306.787C270.041 306.787 269.876 306.827 269.728 306.904L263.2 310.756C262.924 310.924 262.9 311.164 263.2 311.308L269.524 314.968C269.664 315.026 269.815 315.053 269.966 315.046C270.117 315.04 270.265 315.001 270.4 314.932ZM319.864 275.932L326.476 272.116C326.752 271.96 326.788 271.708 326.536 271.564L320.212 267.964C320.063 267.89 319.899 267.852 319.732 267.852C319.565 267.852 319.401 267.89 319.252 267.964L312.628 271.792C312.352 271.948 312.328 272.2 312.628 272.344L318.952 275.944C319.1 276.017 319.263 276.054 319.427 276.052C319.592 276.05 319.754 276.009 319.9 275.932H319.864ZM309.064 292.612L323.812 284.092C324.1 283.936 324.124 283.684 323.812 283.54L308.452 274.672C308.301 274.598 308.135 274.559 307.966 274.559C307.798 274.559 307.631 274.598 307.48 274.672L299.86 279.076C299.572 279.244 299.548 279.496 299.8 279.64L307.936 284.332C308.188 284.476 308.152 284.728 307.876 284.884L301.864 288.4C301.588 288.568 301.564 288.808 301.864 288.952L308.188 292.612C308.331 292.679 308.486 292.713 308.644 292.713C308.802 292.713 308.957 292.679 309.1 292.612H309.064ZM264.928 288.868L258.4 292.684C258.124 292.852 258.1 293.092 258.4 293.236L264.724 296.896C264.873 296.97 265.038 297.009 265.204 297.009C265.371 297.009 265.535 296.97 265.684 296.896L272.296 293.08C272.572 292.912 272.596 292.672 272.356 292.528L266.02 288.868C265.86 288.774 265.678 288.725 265.492 288.725C265.306 288.725 265.124 288.774 264.964 288.868H264.928ZM255.304 294.4L248.692 298.216C248.404 298.384 248.38 298.624 248.692 298.768L255.016 302.428C255.164 302.505 255.329 302.545 255.496 302.545C255.663 302.545 255.828 302.505 255.976 302.428L262.588 298.612C262.876 298.444 262.9 298.204 262.648 298.06L256.264 294.4C256.116 294.323 255.951 294.283 255.784 294.283C255.617 294.283 255.452 294.323 255.304 294.4ZM201.82 353.98C201.968 354.057 202.133 354.097 202.3 354.097C202.467 354.097 202.632 354.057 202.78 353.98L209.392 350.164C209.668 350.008 209.692 349.756 209.452 349.612L203.116 346.012C202.968 345.935 202.803 345.895 202.636 345.895C202.469 345.895 202.304 345.935 202.156 346.012L195.544 349.828C195.268 349.996 195.244 350.248 195.484 350.392L201.82 353.98ZM178 339.088L171.388 342.904C171.112 343.072 171.076 343.324 171.328 343.468L177.664 347.068C177.812 347.145 177.977 347.185 178.144 347.185C178.311 347.185 178.476 347.145 178.624 347.068L185.236 343.252C185.512 343.096 185.536 342.844 185.236 342.7L178.912 339.1C178.771 339.029 178.615 338.991 178.457 338.989C178.299 338.987 178.143 339.021 178 339.088ZM190.252 350.284C190.404 350.357 190.57 350.395 190.738 350.395C190.906 350.395 191.073 350.357 191.224 350.284L197.836 346.468C198.112 346.3 198.136 346.048 197.836 345.904L191.512 342.304C191.364 342.227 191.199 342.187 191.032 342.187C190.865 342.187 190.7 342.227 190.552 342.304L184 346.072C183.724 346.228 183.688 346.48 183.94 346.624L190.252 350.284ZM216.928 356.284L223.54 352.468C223.816 352.312 223.84 352.06 223.54 351.916L217.204 348.316C217.055 348.242 216.891 348.203 216.724 348.203C216.557 348.203 216.393 348.242 216.244 348.316L209.632 352.144C209.356 352.3 209.332 352.552 209.632 352.696L215.956 356.296C216.105 356.367 216.268 356.402 216.433 356.398C216.598 356.394 216.759 356.351 216.904 356.272L216.928 356.284ZM206.296 361.9C206.444 361.977 206.609 362.017 206.776 362.017C206.943 362.017 207.108 361.977 207.256 361.9L213.868 358.084C214.156 357.928 214.18 357.676 213.868 357.532L207.544 353.932C207.395 353.858 207.231 353.82 207.064 353.82C206.897 353.82 206.733 353.858 206.584 353.932L199.972 357.76C199.684 357.916 199.66 358.168 199.912 358.312L206.296 361.9ZM187.6 333.508L180.976 337.324C180.7 337.492 180.676 337.744 180.976 337.888L187.3 341.488C187.448 341.565 187.613 341.605 187.78 341.605C187.947 341.605 188.112 341.565 188.26 341.488L194.872 337.672C195.16 337.516 195.184 337.264 194.932 337.12L188.608 333.46C188.449 333.385 188.274 333.351 188.098 333.359C187.922 333.367 187.751 333.419 187.6 333.508ZM235.924 305.608L229.312 309.424C229.024 309.592 229 309.832 229.252 309.976L235.576 313.576C235.724 313.653 235.889 313.693 236.056 313.693C236.223 313.693 236.388 313.653 236.536 313.576L243.16 309.76C243.436 309.592 243.46 309.352 243.16 309.208L236.836 305.548C236.696 305.496 236.547 305.474 236.398 305.484C236.248 305.495 236.103 305.537 235.972 305.608H235.924ZM197.26 327.928L190.648 331.744C190.372 331.912 190.336 332.164 190.588 332.308L196.912 335.908C197.062 335.985 197.229 336.025 197.398 336.025C197.567 336.025 197.734 335.985 197.884 335.908L204.496 332.092C204.772 331.924 204.796 331.684 204.496 331.54L198.172 327.94C198.037 327.879 197.89 327.846 197.741 327.844C197.593 327.842 197.445 327.87 197.308 327.928H197.26ZM245.584 300.028L238.972 303.844C238.696 304.012 238.672 304.252 238.972 304.396L245.296 308.056C245.444 308.133 245.609 308.173 245.776 308.173C245.943 308.173 246.108 308.133 246.256 308.056L252.868 304.24C253.144 304.072 253.168 303.832 252.928 303.688L246.592 300.088C246.449 300.002 246.286 299.951 246.119 299.941C245.952 299.93 245.785 299.96 245.632 300.028H245.584ZM226.3 311.2L219.688 315.016C219.412 315.184 219.388 315.424 219.688 315.568L226.012 319.228C226.16 319.305 226.325 319.345 226.492 319.345C226.659 319.345 226.824 319.305 226.972 319.228L233.584 315.412C233.86 315.244 233.896 315.004 233.644 314.86L227.272 311.2C227.122 311.123 226.955 311.083 226.786 311.083C226.617 311.083 226.45 311.123 226.3 311.2ZM216.64 316.78L210.028 320.596C209.74 320.764 209.716 321.004 209.968 321.148L216.292 324.808C216.44 324.885 216.605 324.925 216.772 324.925C216.939 324.925 217.104 324.885 217.252 324.808L223.876 320.992C224.152 320.824 224.176 320.584 223.876 320.44L217.6 316.732C217.448 316.664 217.282 316.631 217.116 316.637C216.949 316.644 216.786 316.688 216.64 316.768V316.78ZM207.04 322.36L200.416 326.176C200.14 326.344 200.116 326.596 200.416 326.74L206.74 330.34C206.888 330.417 207.053 330.457 207.22 330.457C207.387 330.457 207.552 330.417 207.7 330.34L214.312 326.524C214.6 326.356 214.624 326.116 214.372 325.972L208 322.312C207.84 322.234 207.663 322.196 207.485 322.202C207.308 322.208 207.134 322.258 206.98 322.348L207.04 322.36ZM251.164 326.104L257.776 322.288C258.064 322.12 258.088 321.88 257.776 321.736L251.452 318.136C251.303 318.062 251.139 318.024 250.972 318.024C250.805 318.024 250.641 318.062 250.492 318.136L243.868 321.952C243.592 322.12 243.568 322.36 243.868 322.504L250.192 326.164C250.34 326.222 250.498 326.246 250.656 326.233C250.814 326.221 250.967 326.173 251.104 326.092L251.164 326.104ZM341.332 244.828L334.72 248.644C334.444 248.8 334.42 249.052 334.66 249.196L340.996 252.796C341.145 252.87 341.31 252.909 341.476 252.909C341.643 252.909 341.807 252.87 341.956 252.796L348.568 248.968C348.844 248.812 348.868 248.56 348.628 248.416L342.292 244.816C342.136 244.729 341.961 244.683 341.782 244.683C341.603 244.683 341.428 244.729 341.272 244.816L341.332 244.828ZM329.632 251.572L323.02 255.4C322.744 255.556 322.72 255.808 322.96 255.952L329.296 259.552C329.445 259.626 329.61 259.665 329.776 259.665C329.943 259.665 330.107 259.626 330.256 259.552L336.868 255.724C337.144 255.568 337.168 255.316 336.928 255.172L330.592 251.572C330.436 251.486 330.262 251.44 330.084 251.438C329.906 251.436 329.73 251.478 329.572 251.56L329.632 251.572ZM350.944 239.2L344.332 243.016C344.044 243.172 344.02 243.424 344.272 243.568L350.596 247.168C350.745 247.242 350.91 247.281 351.076 247.281C351.243 247.281 351.407 247.242 351.556 247.168L358.168 243.34C358.456 243.184 358.48 242.932 358.228 242.788L351.904 239.188C351.755 239.113 351.59 239.075 351.423 239.077C351.256 239.079 351.091 239.121 350.944 239.2ZM297.52 288.856L304.132 285.04C304.408 284.884 304.432 284.632 304.192 284.488L297.856 280.888C297.707 280.814 297.543 280.776 297.376 280.776C297.21 280.776 297.045 280.814 296.896 280.888L290.284 284.716C290.008 284.872 289.984 285.124 290.224 285.268L296.56 288.868C296.709 288.943 296.874 288.981 297.042 288.979C297.209 288.977 297.373 288.935 297.52 288.856ZM361.564 233.656C361.415 233.582 361.251 233.544 361.084 233.544C360.918 233.544 360.753 233.582 360.604 233.656L353.992 237.484C353.716 237.64 353.692 237.892 353.932 238.036L360.268 241.636C360.417 241.71 360.582 241.749 360.748 241.749C360.915 241.749 361.079 241.71 361.228 241.636L367.84 237.808C368.116 237.652 368.14 237.4 367.9 237.256L361.564 233.656ZM260.764 320.548L267.376 316.732C267.652 316.564 267.676 316.324 267.376 316.18L261.052 312.52C260.904 312.443 260.739 312.403 260.572 312.403C260.405 312.403 260.24 312.443 260.092 312.52L253.6 316.336C253.324 316.504 253.288 316.744 253.6 316.888L259.924 320.548C260.064 320.604 260.215 320.63 260.366 320.624C260.517 320.618 260.665 320.58 260.8 320.512L260.764 320.548ZM379.288 252.148L385.9 248.332C386.188 248.176 386.212 247.924 385.96 247.78L379.6 244C379.451 243.926 379.287 243.888 379.12 243.888C378.954 243.888 378.789 243.926 378.64 244L372.028 247.816C371.74 247.984 371.716 248.236 371.968 248.38L378.292 251.98C378.438 252.08 378.607 252.142 378.784 252.158C378.96 252.175 379.138 252.147 379.3 252.076L379.288 252.148ZM360.58 252.508L367.204 248.692C367.48 248.536 367.504 248.284 367.204 248.14L360.88 244.54C360.731 244.466 360.567 244.428 360.4 244.428C360.234 244.428 360.069 244.466 359.92 244.54L353.308 248.368C353.02 248.524 352.996 248.776 353.248 248.92L359.572 252.52C359.738 252.59 359.919 252.615 360.098 252.594C360.277 252.573 360.447 252.506 360.592 252.4L360.58 252.508ZM370.588 238.912C370.439 238.838 370.275 238.8 370.108 238.8C369.941 238.8 369.777 238.838 369.628 238.912L363.016 242.74C362.74 242.896 362.716 243.148 363.016 243.292L369.34 246.892C369.488 246.969 369.653 247.009 369.82 247.009C369.987 247.009 370.152 246.969 370.3 246.892L376.912 243.076C377.188 242.92 377.224 242.668 376.912 242.524L370.588 238.912ZM372.628 237.712L387.988 246.58C388.138 246.657 388.305 246.697 388.474 246.697C388.643 246.697 388.81 246.657 388.96 246.58L395.572 242.764C395.848 242.608 395.872 242.356 395.572 242.212L380.212 233.344C380.063 233.27 379.899 233.232 379.732 233.232C379.565 233.232 379.401 233.27 379.252 233.344L372.64 237.16C372.4 237.268 372.4 237.52 372.64 237.664L372.628 237.712ZM350.308 250L343.696 253.828C343.42 253.984 343.396 254.236 343.696 254.38L350.02 257.98C350.168 258.057 350.333 258.097 350.5 258.097C350.667 258.097 350.832 258.057 350.98 257.98L357.592 254.164C357.868 254.008 357.904 253.756 357.652 253.612L351.328 250.012C351.172 249.928 350.997 249.883 350.82 249.881C350.642 249.879 350.466 249.92 350.308 250ZM277.6 292L270.988 295.828C270.712 295.984 270.688 296.236 270.988 296.38L277.324 299.98C277.472 300.057 277.637 300.097 277.804 300.097C277.971 300.097 278.136 300.057 278.284 299.98L284.8 296.2C285.076 296.044 285.1 295.792 284.86 295.648L278.524 292.048C278.383 291.972 278.227 291.928 278.067 291.92C277.908 291.912 277.748 291.939 277.6 292ZM368.716 257.668C368.864 257.745 369.029 257.785 369.196 257.785C369.363 257.785 369.528 257.745 369.676 257.668L376.288 253.852C376.564 253.696 376.588 253.444 376.288 253.3L370 249.628C369.851 249.554 369.687 249.516 369.52 249.516C369.354 249.516 369.189 249.554 369.04 249.628L362.428 253.444C362.152 253.612 362.128 253.864 362.368 254.008L368.716 257.668ZM287.272 286.468L280.66 290.296C280.372 290.452 280.348 290.704 280.66 290.848L286.984 294.448C287.132 294.525 287.297 294.565 287.464 294.565C287.631 294.565 287.796 294.525 287.944 294.448L294.556 290.632C294.844 290.476 294.868 290.224 294.616 290.08L288.292 286.48C288.13 286.377 287.943 286.32 287.751 286.314C287.559 286.307 287.369 286.352 287.2 286.444L287.272 286.468ZM211.48 348.4C211.628 348.477 211.793 348.517 211.96 348.517C212.127 348.517 212.292 348.477 212.44 348.4L219.052 344.584C219.34 344.428 219.364 344.176 219.052 344.032L212.8 340.384C212.651 340.31 212.487 340.272 212.32 340.272C212.153 340.272 211.989 340.31 211.84 340.384L205.228 344.2C204.94 344.368 204.916 344.62 205.168 344.764L211.48 348.4ZM200.248 336.628L193.6 340.492C193.324 340.648 193.3 340.9 193.6 341.044L199.924 344.644C200.072 344.721 200.237 344.761 200.404 344.761C200.571 344.761 200.736 344.721 200.884 344.644L207.496 340.828C207.784 340.66 207.808 340.408 207.556 340.264L201.232 336.664C201.08 336.585 200.91 336.545 200.739 336.547C200.567 336.549 200.398 336.593 200.248 336.676V336.628ZM222.112 342.784L228.724 338.968C229 338.812 229.024 338.56 228.724 338.416L222.4 334.804C222.251 334.73 222.087 334.692 221.92 334.692C221.753 334.692 221.589 334.73 221.44 334.804L214.828 338.62C214.552 338.788 214.528 339.04 214.828 339.184L221.164 342.784C221.307 342.866 221.467 342.914 221.632 342.922C221.797 342.93 221.961 342.9 222.112 342.832V342.784ZM231.772 337.204L238.384 333.388C238.672 333.22 238.696 332.98 238.444 332.836L232.12 329.2C231.971 329.126 231.807 329.088 231.64 329.088C231.473 329.088 231.309 329.126 231.16 329.2L224.548 333.016C224.26 333.184 224.236 333.436 224.548 333.58L230.872 337.18C231.007 337.259 231.158 337.306 231.314 337.318C231.47 337.331 231.626 337.308 231.772 337.252V337.204ZM241.444 331.624L248.056 327.808C248.332 327.64 248.356 327.4 248.056 327.256L241.732 323.596C241.583 323.522 241.419 323.484 241.252 323.484C241.085 323.484 240.921 323.522 240.772 323.596L234.16 327.412C233.884 327.58 233.848 327.832 234.1 327.964L240.436 331.564C240.581 331.666 240.75 331.73 240.926 331.749C241.102 331.768 241.281 331.741 241.444 331.672V331.624ZM209.908 331.048L203.296 334.864C203.02 335.02 202.984 335.272 203.236 335.416L209.56 339.016C209.711 339.09 209.878 339.129 210.046 339.129C210.215 339.129 210.381 339.09 210.532 339.016L217.144 335.2C217.42 335.032 217.444 334.78 217.144 334.636L210.82 331.036C210.673 330.976 210.515 330.951 210.357 330.961C210.199 330.971 210.046 331.018 209.908 331.096V331.048ZM219.58 325.468L212.956 329.284C212.68 329.44 212.656 329.692 212.956 329.836L219.28 333.436C219.429 333.51 219.593 333.549 219.76 333.549C219.927 333.549 220.091 333.51 220.24 333.436L226.852 329.608C227.128 329.452 227.164 329.2 226.912 329.056L220.588 325.456C220.429 325.38 220.253 325.346 220.076 325.356C219.9 325.367 219.729 325.422 219.58 325.516V325.468ZM258.232 303.148L251.62 306.964C251.344 307.12 251.32 307.372 251.62 307.516L257.944 311.116C258.093 311.19 258.257 311.229 258.424 311.229C258.591 311.229 258.755 311.19 258.904 311.116L265.516 307.288C265.792 307.132 265.816 306.88 265.576 306.736L259.24 303.136C259.081 303.06 258.905 303.026 258.728 303.036C258.552 303.047 258.381 303.102 258.232 303.196V303.148ZM248.572 308.8L241.96 312.616C241.672 312.772 241.648 313.024 241.9 313.168L248.224 316.768C248.373 316.842 248.537 316.881 248.704 316.881C248.871 316.881 249.035 316.842 249.184 316.768L255.796 312.94C256.084 312.784 256.108 312.532 255.796 312.388L249.472 308.788C249.331 308.723 249.176 308.69 249.021 308.692C248.865 308.694 248.712 308.731 248.572 308.8ZM267.904 297.628L261.292 301.456C261.004 301.612 260.98 301.864 261.292 302.008L267.616 305.608C267.765 305.682 267.929 305.721 268.096 305.721C268.263 305.721 268.427 305.682 268.576 305.608L275.188 301.78C275.476 301.624 275.5 301.372 275.248 301.228L268.924 297.628C268.769 297.54 268.595 297.492 268.417 297.488C268.239 297.484 268.063 297.524 267.904 297.604V297.628ZM229.24 319.936L222.628 323.752C222.34 323.908 222.316 324.16 222.568 324.304L228.892 327.904C229.041 327.978 229.205 328.017 229.372 328.017C229.539 328.017 229.703 327.978 229.852 327.904L236.476 324.076C236.752 323.92 236.776 323.668 236.476 323.524L230.152 319.924C230.009 319.857 229.853 319.823 229.695 319.825C229.537 319.827 229.381 319.865 229.24 319.936ZM238.9 314.356L232.288 318.172C232.012 318.328 231.988 318.58 232.288 318.724L238.612 322.324C238.761 322.398 238.925 322.437 239.092 322.437C239.259 322.437 239.423 322.398 239.572 322.324L246.184 318.496C246.46 318.34 246.496 318.088 246.244 317.944L239.908 314.344C239.753 314.261 239.579 314.218 239.402 314.22C239.226 314.222 239.053 314.269 238.9 314.356ZM226.564 350.692L233.176 346.876C233.464 346.72 233.488 346.468 233.236 346.324L226.912 342.724C226.763 342.65 226.599 342.612 226.432 342.612C226.265 342.612 226.101 342.65 225.952 342.724L219.34 346.54C219.052 346.708 219.028 346.96 219.34 347.104L225.664 350.704C225.805 350.769 225.96 350.802 226.115 350.8C226.271 350.798 226.424 350.761 226.564 350.692ZM175.6 348.292L169.276 344.692C169.128 344.615 168.963 344.575 168.796 344.575C168.629 344.575 168.464 344.615 168.316 344.692L161.704 348.508C161.416 348.676 161.392 348.928 161.704 349.072L168.028 352.672C168.176 352.749 168.341 352.789 168.508 352.789C168.675 352.789 168.84 352.749 168.988 352.672L175.6 348.856C175.828 348.688 175.852 348.4 175.6 348.292ZM188.2 351.448L181.876 347.848C181.728 347.771 181.563 347.731 181.396 347.731C181.229 347.731 181.064 347.771 180.916 347.848L170.8 353.704C170.512 353.872 170.488 354.124 170.8 354.268L177.124 357.868C177.272 357.945 177.437 357.985 177.604 357.985C177.771 357.985 177.936 357.945 178.084 357.868L188.26 352C188.428 351.844 188.452 351.592 188.2 351.448ZM166.156 341.08L159.832 337.48C159.684 337.403 159.519 337.363 159.352 337.363C159.185 337.363 159.02 337.403 158.872 337.48L150.724 342.184C150.448 342.34 150.424 342.592 150.724 342.736L157.048 346.336C157.197 346.41 157.361 346.449 157.528 346.449C157.695 346.449 157.859 346.41 158.008 346.336L166.144 341.632C166.384 341.464 166.408 341.2 166.156 341.08ZM172.396 337.48C172.544 337.557 172.709 337.597 172.876 337.597C173.043 337.597 173.208 337.557 173.356 337.48L179.968 333.664C180.256 333.496 180.28 333.244 180.028 333.1L173.704 329.5C173.556 329.423 173.391 329.383 173.224 329.383C173.057 329.383 172.892 329.423 172.744 329.5L166.132 333.316C165.844 333.472 165.82 333.724 166.072 333.868L172.396 337.48ZM199.78 355.216L193.456 351.616C193.307 351.542 193.143 351.504 192.976 351.504C192.809 351.504 192.645 351.542 192.496 351.616L179.776 358.96C179.5 359.128 179.464 359.368 179.776 359.512L186.1 363.112C186.25 363.189 186.417 363.229 186.586 363.229C186.755 363.229 186.922 363.189 187.072 363.112L199.78 355.768C200.008 355.6 200.032 355.348 199.78 355.204V355.216ZM204.244 363.076L197.908 359.476C197.759 359.402 197.595 359.364 197.428 359.364C197.261 359.364 197.097 359.402 196.948 359.476L188.8 364.144C188.524 364.312 188.5 364.552 188.8 364.696L195.136 368.356C195.285 368.429 195.45 368.467 195.616 368.467C195.782 368.467 195.947 368.429 196.096 368.356L204.232 363.652C204.46 363.46 204.496 363.208 204.244 363.064V363.076ZM244.264 295.996C244.412 296.073 244.577 296.113 244.744 296.113C244.911 296.113 245.076 296.073 245.224 295.996L251.836 292.18C252.112 292.012 252.136 291.772 251.896 291.628L245.56 288.028C245.411 287.955 245.246 287.917 245.08 287.917C244.914 287.917 244.749 287.955 244.6 288.028L238 291.772C237.724 291.94 237.7 292.18 237.94 292.324L244.264 295.996ZM224.932 307.156C225.08 307.233 225.245 307.273 225.412 307.273C225.579 307.273 225.744 307.233 225.892 307.156L232.504 303.34C232.78 303.184 232.816 302.932 232.564 302.788L226.228 299.128C226.079 299.055 225.914 299.017 225.748 299.017C225.582 299.017 225.417 299.055 225.268 299.128L218.656 302.944C218.38 303.112 218.356 303.364 218.656 303.508L224.932 307.156ZM182.056 331.9C182.207 331.974 182.374 332.013 182.542 332.013C182.711 332.013 182.877 331.974 183.028 331.9L189.64 328C189.916 327.832 189.94 327.58 189.64 327.436L183.316 323.836C183.168 323.759 183.003 323.719 182.836 323.719C182.669 323.719 182.504 323.759 182.356 323.836L175.744 327.652C175.468 327.808 175.432 328.06 175.744 328.204L182.056 331.9ZM234.592 301.6C234.74 301.677 234.905 301.717 235.072 301.717C235.239 301.717 235.404 301.677 235.552 301.6L242.164 297.784C242.452 297.628 242.476 297.376 242.224 297.232L235.9 293.572C235.751 293.498 235.587 293.46 235.42 293.46C235.253 293.46 235.089 293.498 234.94 293.572L228.328 297.388C228.04 297.556 228.016 297.808 228.268 297.952L234.592 301.6ZM215.26 312.76C215.408 312.837 215.573 312.877 215.74 312.877C215.907 312.877 216.072 312.837 216.22 312.76L222.832 308.944C223.12 308.788 223.144 308.536 222.832 308.392L216.508 304.732C216.359 304.658 216.195 304.62 216.028 304.62C215.861 304.62 215.697 304.658 215.548 304.732L208.936 308.548C208.648 308.716 208.624 308.968 208.876 309.112L215.26 312.76ZM208.984 363.496C208.835 363.422 208.671 363.384 208.504 363.384C208.337 363.384 208.173 363.422 208.024 363.496L197.848 369.376C197.572 369.532 197.548 369.784 197.848 369.928L204.172 373.528C204.32 373.605 204.485 373.645 204.652 373.645C204.819 373.645 204.984 373.605 205.132 373.528L215.308 367.648C215.584 367.492 215.608 367.24 215.308 367.096L208.984 363.496ZM201.388 320.764C201.537 320.838 201.701 320.877 201.868 320.877C202.035 320.877 202.199 320.838 202.348 320.764L208.972 316.936C209.248 316.78 209.272 316.528 208.972 316.384L202.648 312.784C202.5 312.707 202.335 312.667 202.168 312.667C202.001 312.667 201.836 312.707 201.688 312.784L195.076 316.6C194.788 316.756 194.764 317.008 195.016 317.152L201.388 320.764ZM191.728 326.344C191.877 326.418 192.041 326.457 192.208 326.457C192.375 326.457 192.539 326.418 192.688 326.344L199.3 322.516C199.588 322.36 199.612 322.108 199.36 321.964L193.036 318.364C192.888 318.287 192.723 318.247 192.556 318.247C192.389 318.247 192.224 318.287 192.076 318.364L185.452 322.18C185.176 322.336 185.152 322.588 185.452 322.732L191.728 326.344ZM388.06 260.104C387.912 260.027 387.747 259.987 387.58 259.987C387.413 259.987 387.248 260.027 387.1 260.104L370.816 269.5C370.54 269.668 370.504 269.908 370.756 270.052L377.092 273.712C377.24 273.789 377.405 273.829 377.572 273.829C377.739 273.829 377.904 273.789 378.052 273.712L394.324 264.316C394.612 264.148 394.636 263.908 394.384 263.764L388.06 260.104ZM366.688 272.44C366.54 272.363 366.375 272.323 366.208 272.323C366.041 272.323 365.876 272.363 365.728 272.44L359.116 276.256C358.84 276.424 358.804 276.664 359.056 276.808L365.38 280.468C365.531 280.545 365.697 280.585 365.866 280.585C366.035 280.585 366.202 280.545 366.352 280.468L372.964 276.652C373.24 276.484 373.264 276.244 372.964 276.1L366.688 272.44ZM236.236 345.112L242.848 341.296C243.124 341.14 243.148 340.888 242.908 340.744L236.572 337.144C236.423 337.07 236.259 337.032 236.092 337.032C235.925 337.032 235.761 337.07 235.612 337.144L229 340.96C228.724 341.128 228.7 341.38 229 341.524L235.324 345.124C235.467 345.191 235.623 345.225 235.781 345.223C235.939 345.221 236.095 345.183 236.236 345.112ZM347.356 283.6C347.207 283.526 347.043 283.488 346.876 283.488C346.71 283.488 346.545 283.526 346.396 283.6L339.784 287.416C339.508 287.584 339.472 287.824 339.724 287.968L346.06 291.628C346.208 291.705 346.373 291.745 346.54 291.745C346.707 291.745 346.872 291.705 347.02 291.628L353.632 287.812C353.908 287.644 353.932 287.404 353.632 287.26L347.356 283.6ZM397.756 254.524C397.608 254.447 397.443 254.407 397.276 254.407C397.109 254.407 396.944 254.447 396.796 254.524L390.148 258.4C389.872 258.568 389.836 258.808 390.088 258.952L396.412 262.552C396.561 262.626 396.726 262.665 396.892 262.665C397.059 262.665 397.223 262.626 397.372 262.552L403.996 258.736C404.272 258.568 404.296 258.328 403.996 258.184L397.756 254.524ZM413.752 252.604L398.38 243.724C398.232 243.647 398.067 243.607 397.9 243.607C397.733 243.607 397.568 243.647 397.42 243.724L390.772 247.6C390.496 247.768 390.472 248.008 390.712 248.152L406.084 257.032C406.233 257.106 406.398 257.145 406.564 257.145C406.731 257.145 406.895 257.106 407.044 257.032L413.656 253.216C413.932 252.952 413.968 252.712 413.716 252.568L413.752 252.604ZM311.2 304.42C311.052 304.343 310.887 304.303 310.72 304.303C310.553 304.303 310.388 304.343 310.24 304.42L302.104 309.112C301.828 309.28 301.792 309.532 302.044 309.676L308.368 313.276C308.519 313.353 308.685 313.393 308.854 313.393C309.023 313.393 309.19 313.353 309.34 313.276L317.476 308.584C317.752 308.416 317.776 308.164 317.536 308.02L311.2 304.42ZM335.62 290.32C335.472 290.243 335.307 290.203 335.14 290.203C334.973 290.203 334.808 290.243 334.66 290.32L324.484 296.188C324.208 296.356 324.184 296.608 324.424 296.752L330.76 300.352C330.908 300.429 331.073 300.469 331.24 300.469C331.407 300.469 331.572 300.429 331.72 300.352L341.896 294.484C342.172 294.316 342.196 294.076 341.896 293.932L335.62 290.32ZM288.82 317.344C288.672 317.267 288.507 317.227 288.34 317.227C288.173 317.227 288.008 317.267 287.86 317.344L233.428 348.772C233.152 348.928 233.116 349.18 233.368 349.324L239.692 352.924C239.84 353.001 240.005 353.041 240.172 353.041C240.339 353.041 240.504 353.001 240.652 352.924L295.096 321.508C295.372 321.34 295.396 321.088 295.096 320.944L288.82 317.344ZM231.34 350.536C231.191 350.462 231.027 350.424 230.86 350.424C230.693 350.424 230.529 350.462 230.38 350.536L222.232 355.24C221.956 355.408 221.932 355.648 222.232 355.792L228.556 359.452C228.705 359.526 228.869 359.565 229.036 359.565C229.203 359.565 229.367 359.526 229.516 359.452L237.652 354.748C237.928 354.592 237.964 354.34 237.712 354.196L231.34 350.536ZM300.016 310.936C299.868 310.859 299.703 310.819 299.536 310.819C299.369 310.819 299.204 310.859 299.056 310.936L290.908 315.64C290.632 315.796 290.608 316.048 290.908 316.192L297.232 319.792C297.38 319.869 297.545 319.909 297.712 319.909C297.879 319.909 298.044 319.869 298.192 319.792L306.328 315.088C306.616 314.932 306.64 314.68 306.388 314.536L300.016 310.936ZM220.144 357.04C219.996 356.963 219.831 356.923 219.664 356.923C219.497 356.923 219.332 356.963 219.184 357.04L211.048 361.732C210.76 361.9 210.736 362.152 211.048 362.296L217.372 365.896C217.52 365.973 217.685 366.013 217.852 366.013C218.019 366.013 218.184 365.973 218.332 365.896L226.468 361.204C226.756 361.036 226.78 360.796 226.468 360.652L220.144 357.04ZM322.432 298C322.283 297.926 322.119 297.888 321.952 297.888C321.785 297.888 321.621 297.926 321.472 298L313.336 302.704C313.048 302.86 313.024 303.112 313.336 303.256L319.66 306.916C319.809 306.99 319.974 307.029 320.14 307.029C320.307 307.029 320.471 306.99 320.62 306.916L328.756 302.212C329.044 302.056 329.068 301.804 328.816 301.66L322.432 298ZM357.028 278.02C356.88 277.943 356.715 277.903 356.548 277.903C356.381 277.903 356.216 277.943 356.068 278.02L349.444 281.836C349.168 282.004 349.144 282.244 349.444 282.388L355.72 286C355.868 286.077 356.033 286.117 356.2 286.117C356.367 286.117 356.532 286.077 356.68 286L363.292 282.184C363.58 282.016 363.604 281.776 363.292 281.632L357.028 278.02ZM378.628 262.912L385.24 259.096C385.516 258.928 385.552 258.688 385.3 258.544L378.964 254.944C378.815 254.871 378.65 254.833 378.484 254.833C378.318 254.833 378.154 254.871 378.004 254.944L371.392 258.76C371.116 258.928 371.092 259.168 371.392 259.324L377.716 262.924C377.868 262.994 378.035 263.025 378.202 263.017C378.369 263.009 378.532 262.96 378.676 262.876L378.628 262.912ZM339.184 264.808L345.796 260.992C346.072 260.836 346.108 260.584 345.856 260.44L339.532 256.84C339.381 256.766 339.215 256.727 339.046 256.727C338.878 256.727 338.711 256.766 338.56 256.84L331.948 260.668C331.672 260.824 331.648 261.076 331.948 261.22L338.272 264.82C338.424 264.89 338.591 264.921 338.758 264.913C338.925 264.905 339.088 264.856 339.232 264.772L339.184 264.808ZM313.6 300.472L332.92 289.312C333.208 289.144 333.232 288.904 332.98 288.76L326.656 285.1C326.507 285.026 326.343 284.988 326.176 284.988C326.01 284.988 325.845 285.026 325.696 285.1L306.364 296.26C306.088 296.428 306.052 296.668 306.304 296.812L312.628 300.412C312.774 300.498 312.938 300.549 313.107 300.559C313.276 300.57 313.445 300.54 313.6 300.472ZM368.08 268.492C368.228 268.569 368.393 268.609 368.56 268.609C368.727 268.609 368.892 268.569 369.04 268.492L375.652 264.676C375.94 264.508 375.964 264.268 375.712 264.124L369.388 260.464C369.239 260.39 369.075 260.352 368.908 260.352C368.742 260.352 368.577 260.39 368.428 260.464L361.816 264.28C361.528 264.448 361.504 264.7 361.816 264.844L368.08 268.492ZM359.968 263.2L366.58 259.384C366.868 259.228 366.892 258.976 366.64 258.832L360.316 255.232C360.167 255.158 360.003 255.12 359.836 255.12C359.669 255.12 359.505 255.158 359.356 255.232L352.744 259.048C352.456 259.216 352.432 259.468 352.684 259.612L359.008 263.212C359.157 263.287 359.322 263.325 359.489 263.323C359.657 263.321 359.821 263.279 359.968 263.2ZM303.892 306.016L310.504 302.2C310.792 302.032 310.816 301.792 310.564 301.648L304.24 298C304.092 297.923 303.927 297.883 303.76 297.883C303.593 297.883 303.428 297.923 303.28 298L296.656 301.816C296.38 301.984 296.356 302.224 296.656 302.368L302.98 306.028C303.12 306.101 303.275 306.141 303.433 306.145C303.591 306.149 303.748 306.117 303.892 306.052V306.016ZM346.684 280.816C346.832 280.893 346.997 280.933 347.164 280.933C347.331 280.933 347.496 280.893 347.644 280.816L354.256 277C354.532 276.832 354.556 276.592 354.316 276.448L347.98 272.848C347.831 272.775 347.666 272.737 347.5 272.737C347.334 272.737 347.169 272.775 347.02 272.848L340.408 276.664C340.132 276.832 340.108 277.072 340.408 277.228L346.684 280.816ZM255.568 334L262.18 330.184C262.456 330.028 262.48 329.776 262.18 329.632L255.844 325.972C255.695 325.899 255.53 325.861 255.364 325.861C255.198 325.861 255.033 325.899 254.884 325.972L248.272 329.788C247.996 329.956 247.972 330.208 248.212 330.352L254.548 333.952C254.7 334.047 254.873 334.101 255.052 334.109C255.23 334.118 255.408 334.08 255.568 334ZM265.228 328.42L271.84 324.604C272.128 324.448 272.152 324.196 271.9 324.052L265.6 320.344C265.451 320.27 265.287 320.232 265.12 320.232C264.953 320.232 264.789 320.27 264.64 320.344L258.028 324.16C257.74 324.328 257.716 324.58 258.028 324.724L264.352 328.324C264.486 328.395 264.633 328.436 264.785 328.445C264.936 328.453 265.087 328.428 265.228 328.372V328.42ZM245.896 339.58L252.508 335.764C252.796 335.608 252.82 335.356 252.508 335.212L246.184 331.612C246.035 331.538 245.871 331.5 245.704 331.5C245.537 331.5 245.373 331.538 245.224 331.612L238.612 335.428C238.324 335.596 238.3 335.848 238.552 335.992L244.876 339.592C245.037 339.67 245.215 339.706 245.394 339.695C245.572 339.685 245.745 339.629 245.896 339.532V339.58ZM284.56 317.2L291.172 313.384C291.46 313.216 291.484 312.976 291.232 312.832L284.908 309.172C284.759 309.098 284.595 309.06 284.428 309.06C284.261 309.06 284.097 309.098 283.948 309.172L277.336 312.988C277.048 313.156 277.024 313.396 277.336 313.54L283.6 317.2C283.748 317.277 283.913 317.317 284.08 317.317C284.247 317.317 284.412 317.277 284.56 317.2ZM274.9 322.78L281.512 318.964C281.788 318.808 281.812 318.556 281.572 318.412L275.2 314.8C275.051 314.726 274.887 314.688 274.72 314.688C274.553 314.688 274.389 314.726 274.24 314.8L267.628 318.616C267.352 318.784 267.328 319.036 267.568 319.18L273.904 322.78C274.056 322.865 274.227 322.91 274.401 322.912C274.574 322.915 274.746 322.873 274.9 322.792V322.78ZM294.232 311.62L300.844 307.804C301.12 307.636 301.144 307.396 300.844 307.252L294.52 303.592C294.372 303.515 294.207 303.475 294.04 303.475C293.873 303.475 293.708 303.515 293.56 303.592L286.948 307.408C286.672 307.576 286.636 307.816 286.888 307.96L293.224 311.62C293.377 311.707 293.55 311.754 293.726 311.756C293.903 311.758 294.077 311.715 294.232 311.632V311.62ZM346.972 233.992C347.12 234.069 347.285 234.109 347.452 234.109C347.619 234.109 347.784 234.069 347.932 233.992L354.544 230.176C354.832 230.008 354.856 229.768 354.604 229.624L352.924 228.652C352.775 228.578 352.611 228.539 352.444 228.539C352.277 228.539 352.113 228.578 351.964 228.652L345.34 232.48C345.064 232.636 345.04 232.888 345.34 233.032L346.972 233.992ZM298.972 264.412C299.121 264.485 299.286 264.523 299.452 264.523C299.618 264.523 299.783 264.485 299.932 264.412L306.544 260.596C306.82 260.428 306.844 260.176 306.544 260.032L300.22 256.432C300.072 256.355 299.907 256.315 299.74 256.315C299.573 256.315 299.408 256.355 299.26 256.432L292.648 260.248C292.372 260.404 292.348 260.656 292.588 260.8L298.972 264.412ZM318.304 253.252C318.453 253.325 318.618 253.363 318.784 253.363C318.95 253.363 319.115 253.325 319.264 253.252L325.876 249.436C326.152 249.268 326.176 249.016 325.876 248.872L319.6 245.2C319.452 245.123 319.287 245.083 319.12 245.083C318.953 245.083 318.788 245.123 318.64 245.2L312.028 249.016C311.752 249.172 311.716 249.424 311.968 249.568L318.304 253.252ZM287.164 271.252C287.313 271.326 287.477 271.365 287.644 271.365C287.811 271.365 287.975 271.326 288.124 271.252L294.736 267.424C295.024 267.268 295.048 267.016 294.796 266.872L288.4 263.2C288.252 263.123 288.087 263.083 287.92 263.083C287.753 263.083 287.588 263.123 287.44 263.2L280.828 267.016C280.54 267.172 280.516 267.424 280.768 267.568L287.164 271.252ZM308.632 258.868C308.781 258.942 308.946 258.981 309.112 258.981C309.279 258.981 309.443 258.942 309.592 258.868L316.204 255.052C316.492 254.884 316.516 254.632 316.264 254.488L309.94 250.888C309.792 250.811 309.627 250.771 309.46 250.771C309.293 250.771 309.128 250.811 308.98 250.888L302.368 254.704C302.08 254.86 302.056 255.112 302.308 255.256L308.632 258.868ZM267.832 282.424C267.982 282.495 268.146 282.531 268.312 282.531C268.478 282.531 268.642 282.495 268.792 282.424L275.404 278.608C275.692 278.44 275.716 278.188 275.464 278.044L269.14 274.444C268.992 274.367 268.827 274.327 268.66 274.327C268.493 274.327 268.328 274.367 268.18 274.444L261.568 278.26C261.28 278.416 261.256 278.668 261.508 278.812L267.832 282.424ZM277.504 276.832C277.653 276.906 277.817 276.945 277.984 276.945C278.151 276.945 278.315 276.906 278.464 276.832L285.076 273.016C285.352 272.848 285.376 272.596 285.076 272.452L278.752 268.852C278.604 268.775 278.439 268.735 278.272 268.735C278.105 268.735 277.94 268.775 277.792 268.852L271.18 272.668C270.904 272.824 270.88 273.076 271.12 273.22L277.504 276.832ZM327.64 245.2C327.788 245.277 327.953 245.317 328.12 245.317C328.287 245.317 328.452 245.277 328.6 245.2L335.212 241.384C335.5 241.216 335.524 240.976 335.272 240.832L333.592 239.86C333.443 239.786 333.279 239.748 333.112 239.748C332.946 239.748 332.781 239.786 332.632 239.86L326.02 243.688C325.732 243.844 325.708 244.096 325.96 244.24L327.64 245.2ZM356.644 228.4C356.792 228.477 356.957 228.517 357.124 228.517C357.291 228.517 357.456 228.477 357.604 228.4L364.216 224.584C364.492 224.416 364.516 224.176 364.216 224.032L362.536 223.06C362.387 222.986 362.223 222.948 362.056 222.948C361.89 222.948 361.725 222.986 361.576 223.06L354.964 226.888C354.676 227.044 354.652 227.296 354.904 227.44L356.644 228.4ZM369.928 236.068C370.077 236.142 370.242 236.181 370.408 236.181C370.575 236.181 370.739 236.142 370.888 236.068L377.5 232.24C377.788 232.084 377.812 231.832 377.56 231.688L371.236 228.088C371.087 228.014 370.923 227.976 370.756 227.976C370.59 227.976 370.425 228.014 370.276 228.088L363.664 231.916C363.376 232.072 363.352 232.324 363.604 232.468L369.928 236.068ZM388.336 257.272L394.948 253.456C395.236 253.288 395.26 253.048 394.948 252.904L388.624 249.244C388.475 249.17 388.311 249.132 388.144 249.132C387.977 249.132 387.813 249.17 387.664 249.244L381.052 253.06C380.764 253.228 380.74 253.468 380.992 253.612L387.316 257.272C387.47 257.363 387.644 257.413 387.823 257.417C388.001 257.421 388.178 257.38 388.336 257.296V257.272ZM337.312 239.56C337.46 239.637 337.625 239.677 337.792 239.677C337.959 239.677 338.124 239.637 338.272 239.56L344.884 235.744C345.16 235.576 345.184 235.336 344.884 235.192L343.204 234.22C343.055 234.146 342.891 234.108 342.724 234.108C342.557 234.108 342.393 234.146 342.244 234.22L335.632 238.048C335.356 238.204 335.32 238.456 335.632 238.6L337.312 239.56ZM258.112 287.956C258.261 288.029 258.426 288.067 258.592 288.067C258.758 288.067 258.923 288.029 259.072 287.956L265.684 284.14C265.96 283.972 265.984 283.72 265.744 283.576L259.408 279.976C259.26 279.899 259.095 279.859 258.928 279.859C258.761 279.859 258.596 279.899 258.448 279.976L251.836 283.792C251.56 283.948 251.536 284.2 251.776 284.344L258.112 287.956Z" fill="#455A64"/>
<path d="M286.732 337.828L288.088 338.608L324.112 359.392L388.156 322.42L389.488 321.652L352.12 300.088L286.732 337.828Z" fill="#37474F"/>
<path d="M288.088 338.608L324.112 359.392L388.156 322.42L352.12 301.624L288.088 338.608Z" fill="#263238"/>
<path d="M84.472 175.84L69.796 167.44C69.148 167.056 68.668 166.96 68.416 167.116L66.628 168.148C66.316 168.328 66.328 168.856 66.712 169.672L70.312 177.064L67.648 179.464C67.365 179.681 67.1427 179.967 67.0024 180.295C66.8622 180.623 66.8088 180.982 66.8474 181.336C66.886 181.691 67.0153 182.029 67.2227 182.319C67.4302 182.609 67.7089 182.841 68.032 182.992L82.708 191.464L84.496 190.42L84.472 175.84Z" fill="#38B792"/>
<path opacity="0.5" d="M84.472 175.84L69.796 167.44C69.148 167.056 68.668 166.96 68.416 167.116L66.628 168.148C66.316 168.328 66.328 168.856 66.712 169.672L70.312 177.064L67.648 179.464C67.365 179.681 67.1427 179.967 67.0024 180.295C66.8622 180.623 66.8088 180.982 66.8474 181.336C66.886 181.691 67.0153 182.029 67.2227 182.319C67.4302 182.609 67.7089 182.841 68.032 182.992L82.708 191.464L84.496 190.42L84.472 175.84Z" fill="white"/>
<path d="M68.008 168.4C66.58 167.572 65.992 168.112 66.712 169.6L70.312 176.992L67.648 179.392C67.365 179.609 67.1427 179.895 67.0025 180.223C66.8622 180.551 66.8088 180.91 66.8474 181.264C66.886 181.619 67.0153 181.957 67.2228 182.247C67.4302 182.537 67.7089 182.769 68.032 182.92L82.708 191.392V176.884L68.008 168.4Z" fill="#38B792"/>
<path d="M84.3999 222.532C84.1726 222.534 83.9471 222.49 83.7368 222.404C83.5264 222.317 83.3353 222.19 83.1745 222.029C83.0137 221.869 82.8865 221.678 82.8002 221.467C82.7139 221.257 82.6703 221.031 82.6719 220.804V172.06C82.708 171.628 82.9051 171.226 83.224 170.932C83.543 170.639 83.9605 170.476 84.3939 170.476C84.8273 170.476 85.2449 170.639 85.5638 170.932C85.8828 171.226 86.0798 171.628 86.1159 172.06V220.804C86.1175 221.03 86.0743 221.255 85.9888 221.464C85.9032 221.674 85.7771 221.865 85.6176 222.025C85.4581 222.186 85.2684 222.313 85.0594 222.4C84.8504 222.487 84.6263 222.532 84.3999 222.532Z" fill="#455A64"/>
<path d="M21.268 352.324V349.288H22C23.1401 347.241 24.8546 345.572 26.932 344.488C34.516 340.108 46.804 340.108 54.388 344.488C56.4692 345.567 58.1851 347.237 59.32 349.288H60.064V352.228C60.064 355.144 58.24 358.072 54.388 360.292C46.804 364.672 34.516 364.672 26.932 360.292C23.2 358.096 21.244 355.204 21.268 352.324Z" fill="#263238"/>
<path d="M40.672 360.496C51.3951 360.496 60.088 355.478 60.088 349.288C60.088 343.098 51.3951 338.08 40.672 338.08C29.9488 338.08 21.256 343.098 21.256 349.288C21.256 355.478 29.9488 360.496 40.672 360.496Z" fill="#455A64"/>
<path d="M45.6759 243.724V347.956C45.6339 348.395 45.4763 348.815 45.2191 349.174C44.962 349.532 44.6144 349.816 44.2119 349.996C43.117 350.553 41.9062 350.843 40.6779 350.843C39.4497 350.843 38.2389 350.553 37.1439 349.996C36.7399 349.818 36.3911 349.535 36.1336 349.176C35.8762 348.817 35.7195 348.396 35.6799 347.956V243.724H45.6759Z" fill="#37474F"/>
<path d="M35.6799 256.336V266.14L45.6759 271.9V262.12L35.6799 256.336Z" fill="#263238"/>
<path d="M71.92 234.4L90.4 245.08C90.3057 245.23 90.1835 245.36 90.04 245.464L57.712 264.124C57.436 264.28 57.22 264.124 57.22 263.824V240.532C57.309 236.051 58.2243 231.625 59.92 227.476L71.92 234.4Z" fill="#38B792"/>
<path opacity="0.4" d="M71.92 234.4L90.4 245.08C90.3057 245.23 90.1835 245.36 90.04 245.464L57.712 264.124C57.436 264.28 57.22 264.124 57.22 263.824V240.532C57.309 236.051 58.2243 231.625 59.92 227.476L71.92 234.4Z" fill="black"/>
<path d="M90.544 219.1V245.2L59.92 227.488L60.028 227.236C63.304 219.028 68.8 212.08 74.8 208.624C76.8797 207.313 79.2676 206.572 81.724 206.476C87.172 206.476 90.544 211.312 90.544 219.1Z" fill="#38B792"/>
<path opacity="0.3" d="M90.544 219.1V245.2L59.92 227.488L60.028 227.236C63.304 219.028 68.8 212.08 74.8 208.624C76.8797 207.313 79.2676 206.572 81.724 206.476C87.172 206.476 90.544 211.312 90.544 219.1Z" fill="black"/>
<path d="M123.796 274.264V271.936H123.568V272.272C123.43 271.626 123.229 270.995 122.968 270.388C121.768 267.532 119.164 264.796 115.24 262.528L93.364 249.892C92.8513 249.637 92.2865 249.505 91.714 249.505C91.1415 249.505 90.5767 249.637 90.064 249.892L56.608 269.2C56.1955 268.858 55.8392 268.453 55.552 268V270.4C55.5726 270.604 55.6452 270.799 55.7629 270.968C55.8805 271.136 56.0393 271.271 56.224 271.36L78.112 283.984C84.5321 287.432 91.7437 289.136 99.028 288.928C105.095 288.995 111.082 287.539 116.44 284.692C121.36 281.872 123.784 278.116 123.784 274.288L123.796 274.264Z" fill="#38B792"/>
<path opacity="0.4" d="M123.796 274.264V271.936H123.568V272.272C123.43 271.626 123.229 270.995 122.968 270.388C121.768 267.532 119.164 264.796 115.24 262.528L93.364 249.892C92.8513 249.637 92.2865 249.505 91.714 249.505C91.1415 249.505 90.5767 249.637 90.064 249.892L56.608 269.2C56.1955 268.858 55.8392 268.453 55.552 268V270.4C55.5726 270.604 55.6452 270.799 55.7629 270.968C55.8805 271.136 56.0393 271.271 56.224 271.36L78.112 283.984C84.5321 287.432 91.7437 289.136 99.028 288.928C105.095 288.995 111.082 287.539 116.44 284.692C121.36 281.872 123.784 278.116 123.784 274.288L123.796 274.264Z" fill="black"/>
<path d="M122.968 270.4C121.768 267.544 119.164 264.808 115.24 262.54L93.364 249.904C92.8513 249.649 92.2866 249.517 91.714 249.517C91.1415 249.517 90.5768 249.649 90.064 249.904L56.608 269.2L78.112 281.608C84.5343 285.05 91.7444 286.754 99.028 286.552C105.094 286.614 111.08 285.158 116.44 282.316C120.856 279.772 123.268 276.496 123.712 273.076C123.593 272.153 123.342 271.252 122.968 270.4Z" fill="#38B792"/>
<path opacity="0.2" d="M122.968 270.4C121.768 267.544 119.164 264.808 115.24 262.54L93.364 249.904C92.8513 249.649 92.2866 249.517 91.714 249.517C91.1415 249.517 90.5768 249.649 90.064 249.904L56.608 269.2L78.112 281.608C84.5343 285.05 91.7444 286.754 99.028 286.552C105.094 286.614 111.08 285.158 116.44 282.316C120.856 279.772 123.268 276.496 123.712 273.076C123.593 272.153 123.342 271.252 122.968 270.4Z" fill="black"/>
<path d="M123.712 273.088C123.595 272.157 123.345 271.248 122.968 270.388C121.768 267.532 119.164 264.796 115.24 262.528L93.364 249.892C92.8513 249.637 92.2865 249.505 91.714 249.505C91.1415 249.505 90.5767 249.637 90.064 249.892L56.608 269.2L56.224 268.984C56.0249 268.916 55.8521 268.788 55.7297 268.617C55.6073 268.446 55.5415 268.24 55.5415 268.03C55.5415 267.82 55.6073 267.615 55.7297 267.444C55.8521 267.273 56.0249 267.144 56.224 267.076L90.064 247.6C90.5742 247.337 91.1399 247.2 91.714 247.2C92.2881 247.2 92.8538 247.337 93.364 247.6L115.24 260.236C119.164 262.504 121.744 265.24 122.968 268.096C123.37 269.007 123.629 269.974 123.736 270.964C123.814 271.67 123.806 272.384 123.712 273.088Z" fill="#38B792"/>
<path opacity="0.3" d="M123.712 273.088C123.595 272.157 123.345 271.248 122.968 270.388C121.768 267.532 119.164 264.796 115.24 262.528L93.364 249.892C92.8513 249.637 92.2865 249.505 91.714 249.505C91.1415 249.505 90.5767 249.637 90.064 249.892L56.608 269.2L56.224 268.984C56.0249 268.916 55.8521 268.788 55.7297 268.617C55.6073 268.446 55.5415 268.24 55.5415 268.03C55.5415 267.82 55.6073 267.615 55.7297 267.444C55.8521 267.273 56.0249 267.144 56.224 267.076L90.064 247.6C90.5742 247.337 91.1399 247.2 91.714 247.2C92.2881 247.2 92.8538 247.337 93.364 247.6L115.24 260.236C119.164 262.504 121.744 265.24 122.968 268.096C123.37 269.007 123.629 269.974 123.736 270.964C123.814 271.67 123.806 272.384 123.712 273.088Z" fill="black"/>
<path d="M56.968 266.752L90.796 247.216L90.04 245.452L57.712 264.124L56.968 266.752Z" fill="#38B792"/>
<path opacity="0.1" d="M56.968 266.752L90.796 247.216L90.04 245.452L57.712 264.124L56.968 266.752Z" fill="black"/>
<path d="M87.556 217.6C87.5419 217.321 87.4616 217.049 87.3218 216.807C87.182 216.565 86.9867 216.36 86.752 216.208L45.568 192.4C45.3201 192.27 45.0441 192.202 44.764 192.202C44.4839 192.202 44.208 192.27 43.96 192.4L43.048 192.928C42.8133 193.08 42.618 193.285 42.4782 193.527C42.3385 193.769 42.2582 194.041 42.244 194.32V225.892C42.2601 226.171 42.3412 226.442 42.4808 226.684C42.6204 226.925 42.8146 227.131 43.048 227.284L84.232 251.068C84.4841 251.192 84.7612 251.256 85.042 251.256C85.3229 251.256 85.6 251.192 85.852 251.068L86.752 250.54C86.9854 250.387 87.1796 250.181 87.3193 249.94C87.4589 249.698 87.54 249.427 87.556 249.148V217.6Z" fill="#F5F5F5"/>
<path d="M87.328 216.76L85.036 218.08L42.484 193.504C42.6164 193.255 42.8106 193.044 43.048 192.892L43.96 192.376C44.208 192.246 44.4839 192.178 44.764 192.178C45.0441 192.178 45.3201 192.246 45.568 192.376L86.8 216.16C87.0255 216.311 87.2076 216.517 87.328 216.76Z" fill="#E0E0E0"/>
<path d="M85.048 218.068L84.628 218.32C84.7601 218.377 84.8713 218.473 84.9465 218.596C85.0218 218.718 85.0572 218.861 85.048 219.004V250.576C85.0597 250.679 85.0423 250.783 84.9977 250.876C84.9532 250.97 84.8833 251.049 84.796 251.104C84.6726 251.152 84.5355 251.152 84.412 251.104L84.244 251.032L43.048 227.26C42.8153 227.106 42.6215 226.9 42.482 226.659C42.3425 226.417 42.261 226.147 42.244 225.868V194.296C42.2547 194.012 42.3373 193.736 42.484 193.492L85.048 218.068Z" fill="#EBEBEB"/>
<path opacity="0.2" d="M85.036 218.08L65.968 225.196C65.3093 225.447 64.5844 225.465 63.914 225.247C63.2437 225.029 62.6684 224.587 62.284 223.996L59.2 219.292L42.328 193.408L58.612 219.472L42.244 225.88C42.2539 226.166 42.341 226.444 42.496 226.684L58.66 219.544L62.26 225.244C62.6556 225.878 63.2663 226.349 63.9803 226.569C64.6944 226.789 65.4639 226.745 66.148 226.444L68.68 225.328L84.844 251.116C84.9271 251.057 84.9932 250.977 85.0353 250.885C85.0775 250.792 85.0943 250.69 85.084 250.588V250L68.716 225.28L85.036 218.08Z" fill="black"/>
<path d="M77.812 223.132C77.7951 222.854 77.7136 222.583 77.5741 222.341C77.4345 222.1 77.2407 221.894 77.008 221.74L35.812 197.968C35.5641 197.838 35.2882 197.77 35.008 197.77C34.7279 197.77 34.452 197.838 34.204 197.968L33.292 198.484C33.0593 198.638 32.8655 198.844 32.726 199.085C32.5865 199.327 32.505 199.597 32.488 199.876V231.448C32.5059 231.728 32.5877 232 32.727 232.243C32.8664 232.487 33.0597 232.695 33.292 232.852L74.488 256.624C74.736 256.754 75.0119 256.822 75.292 256.822C75.5722 256.822 75.8481 256.754 76.096 256.624L77.008 256.108C77.2407 255.954 77.4345 255.748 77.5741 255.507C77.7136 255.265 77.7951 254.994 77.812 254.716V223.132Z" fill="#F5F5F5"/>
<path d="M77.572 222.4L75.292 223.72L32.728 199.084C32.8641 198.841 33.0578 198.635 33.292 198.484L34.204 197.968C34.452 197.838 34.7279 197.77 35.008 197.77C35.2881 197.77 35.5641 197.838 35.812 197.968L77.008 221.74C77.2499 221.908 77.4442 222.135 77.572 222.4Z" fill="#E0E0E0"/>
<path d="M75.292 223.66L74.872 223.912C75.0041 223.969 75.1154 224.065 75.1906 224.187C75.2658 224.31 75.3012 224.453 75.292 224.596V256.168C75.3037 256.271 75.2863 256.375 75.2417 256.468C75.1972 256.561 75.1273 256.64 75.04 256.696C74.9166 256.744 74.7795 256.744 74.656 256.696L74.488 256.624L33.292 232.852C33.0593 232.698 32.8655 232.492 32.726 232.251C32.5865 232.009 32.505 231.738 32.488 231.46V199.888C32.4987 199.604 32.5813 199.327 32.728 199.084L75.292 223.66Z" fill="#EBEBEB"/>
<path opacity="0.2" d="M75.292 223.66L56.212 230.8C55.5546 231.046 54.8331 231.061 54.1659 230.843C53.4987 230.625 52.9254 230.187 52.54 229.6L49.468 224.908L32.572 199L48.856 225.064L32.488 231.472C32.5126 231.755 32.5986 232.03 32.74 232.276L48.904 225.076L52.504 230.776C52.8992 231.407 53.5078 231.876 54.2192 232.096C54.9306 232.316 55.6974 232.274 56.38 231.976L58.924 230.86L75.04 256.696C75.1273 256.64 75.1972 256.561 75.2417 256.468C75.2863 256.375 75.3037 256.271 75.292 256.168V255.64L58.96 230.872L75.292 223.66Z" fill="black"/>
<path d="M68.056 228.724C68.0419 228.445 67.9616 228.173 67.8218 227.931C67.682 227.689 67.4867 227.484 67.252 227.332L26.068 203.548C25.8183 203.424 25.5431 203.359 25.264 203.359C24.985 203.359 24.7097 203.424 24.46 203.548L23.548 204.076C23.3133 204.228 23.118 204.433 22.9782 204.675C22.8385 204.917 22.7582 205.189 22.744 205.468V237.04C22.7582 237.319 22.8385 237.591 22.9782 237.833C23.118 238.075 23.3133 238.28 23.548 238.432L64.732 262.216C64.9841 262.34 65.2612 262.405 65.542 262.405C65.8229 262.405 66.1 262.34 66.352 262.216L67.252 261.688C67.4867 261.536 67.682 261.331 67.8218 261.089C67.9616 260.847 68.0419 260.575 68.056 260.296V228.724Z" fill="#F5F5F5"/>
<path d="M67.828 227.932L65.536 229.252L22.984 204.676C23.1167 204.431 23.3111 204.224 23.548 204.076L24.46 203.548C24.7097 203.424 24.9849 203.359 25.264 203.359C25.5431 203.359 25.8183 203.424 26.068 203.548L67.252 227.332C67.4926 227.479 67.6911 227.686 67.828 227.932Z" fill="#E0E0E0"/>
<path d="M65.356 262.384C65.4072 262.397 65.4607 262.397 65.512 262.384C65.4882 262.398 65.4613 262.405 65.434 262.405C65.4066 262.405 65.3797 262.398 65.356 262.384Z" fill="#38B792"/>
<path d="M65.548 229.24L65.128 229.492C65.2601 229.549 65.3714 229.645 65.4466 229.768C65.5218 229.89 65.5572 230.033 65.548 230.176V261.76C65.5588 261.861 65.5409 261.963 65.4963 262.055C65.4517 262.146 65.3823 262.223 65.296 262.276C65.1726 262.324 65.0355 262.324 64.912 262.276L64.744 262.216L23.548 238.432C23.3133 238.281 23.118 238.075 22.9782 237.833C22.8385 237.591 22.7582 237.319 22.744 237.04V205.48C22.7547 205.196 22.8373 204.92 22.984 204.676L65.548 229.24Z" fill="#EBEBEB"/>
<path opacity="0.2" d="M65.536 229.252L46.468 236.38C45.8088 236.627 45.0854 236.643 44.4161 236.425C43.7469 236.207 43.1715 235.768 42.784 235.18L39.724 230.488L22.828 204.592L39.112 230.644L22.744 237.052C22.7539 237.338 22.841 237.616 22.996 237.856L39.16 230.716L42.76 236.416C43.1556 237.05 43.7663 237.521 44.4804 237.741C45.1944 237.961 45.964 237.917 46.648 237.616L49.18 236.488L65.344 262.276C65.4291 262.219 65.4966 262.14 65.539 262.046C65.5813 261.953 65.5969 261.85 65.584 261.748V261.22L49.264 236.452L65.536 229.252Z" fill="black"/>
<path d="M86.26 205.6C82.984 203.884 78.64 204.184 73.888 206.944C68.548 210.004 63.736 215.572 60.364 221.944C59.5799 223.422 58.8749 224.94 58.252 226.492C56.4002 230.934 55.4028 235.685 55.312 240.496V267.16C54.7397 267.166 54.1749 267.03 53.668 266.764L6.27999 239.38C5.80306 239.064 5.4062 238.642 5.12085 238.146C4.8355 237.651 4.66949 237.095 4.63599 236.524V211.252C4.63599 198.628 12.952 183.652 23.2 177.652C28 174.844 32.476 174.616 35.788 176.452L86.26 205.6Z" fill="#38B792"/>
<path opacity="0.2" d="M86.26 205.6C82.984 203.884 78.64 204.184 73.888 206.944C68.548 210.004 63.736 215.572 60.364 221.944C59.5799 223.422 58.8749 224.94 58.252 226.492C56.4002 230.934 55.4028 235.685 55.312 240.496V267.16C54.7397 267.166 54.1749 267.03 53.668 266.764L6.27999 239.38C5.80306 239.064 5.4062 238.642 5.12085 238.146C4.8355 237.651 4.66949 237.095 4.63599 236.524V211.252C4.63599 198.628 12.952 183.652 23.2 177.652C28 174.844 32.476 174.616 35.788 176.452L86.26 205.6Z" fill="black"/>
<path opacity="0.1" d="M6.27999 239.38L53.668 266.8C54.1749 267.066 54.7397 267.202 55.312 267.196V240.532C55.3294 238.023 55.6272 235.523 56.2 233.08L5.51199 203.812C4.94891 206.253 4.65515 208.747 4.63599 211.252V236.524C4.66949 237.095 4.8355 237.65 5.12085 238.146C5.4062 238.642 5.80306 239.064 6.27999 239.38Z" fill="black"/>
<path d="M58.252 226.528C56.4003 230.97 55.4028 235.721 55.312 240.532V267.16C55.1102 267.155 54.9094 267.131 54.712 267.088C54.712 265.564 54.712 257.02 54.712 240.532C54.712 220.96 69.772 208.516 73.912 206.932C68.572 209.992 63.76 215.56 60.388 221.932C59.5943 223.425 58.8812 224.959 58.252 226.528Z" fill="#38B792"/>
<path opacity="0.4" d="M58.252 226.528C56.4003 230.97 55.4028 235.721 55.312 240.532V267.16C55.1102 267.155 54.9094 267.131 54.712 267.088C54.712 265.564 54.712 257.02 54.712 240.532C54.712 220.96 69.772 208.516 73.912 206.932C68.572 209.992 63.76 215.56 60.388 221.932C59.5943 223.425 58.8812 224.959 58.252 226.528Z" fill="black"/>
<path d="M57.712 264.124C57.448 264.28 57.22 264.124 57.22 263.836V240.544C57.3065 236.063 58.222 231.636 59.92 227.488L60.028 227.236C60.6825 225.592 61.4359 223.989 62.284 222.436C65.56 216.4 70 211.384 74.8 208.624C76.8797 207.313 79.2676 206.573 81.724 206.476C82.9779 206.467 84.2147 206.768 85.324 207.352C88.564 209.08 90.46 213.256 90.46 219.1V244.6C90.4495 244.771 90.3996 244.936 90.3142 245.084C90.2288 245.232 90.1103 245.358 89.968 245.452L90.712 247.216L90.88 247.12C91.1362 246.931 91.3662 246.709 91.564 246.46C92.0427 245.866 92.32 245.135 92.356 244.372V219.1C92.356 212.344 89.956 207.64 86.176 205.648C82.9 203.92 78.556 204.22 73.804 206.98C68.464 210.04 63.652 215.596 60.28 221.992C59.4964 223.466 58.7914 224.98 58.168 226.528C56.3139 230.973 55.3164 235.729 55.228 240.544V267.148H55.6C56.0785 267.121 56.5453 266.99 56.968 266.764L57.712 264.124Z" fill="#38B792"/>
<path opacity="0.1" d="M57.712 264.124C57.448 264.28 57.22 264.124 57.22 263.836V240.544C57.3065 236.063 58.222 231.636 59.92 227.488L60.028 227.236C60.6825 225.592 61.4359 223.989 62.284 222.436C65.56 216.4 70 211.384 74.8 208.624C76.8797 207.313 79.2676 206.573 81.724 206.476C82.9779 206.467 84.2147 206.768 85.324 207.352C88.564 209.08 90.46 213.256 90.46 219.1V244.6C90.4495 244.771 90.3996 244.936 90.3142 245.084C90.2288 245.232 90.1103 245.358 89.968 245.452L90.712 247.216L90.88 247.12C91.1362 246.931 91.3662 246.709 91.564 246.46C92.0427 245.866 92.32 245.135 92.356 244.372V219.1C92.356 212.344 89.956 207.64 86.176 205.648C82.9 203.92 78.556 204.22 73.804 206.98C68.464 210.04 63.652 215.596 60.28 221.992C59.4964 223.466 58.7914 224.98 58.168 226.528C56.3139 230.973 55.3164 235.729 55.228 240.544V267.148H55.6C56.0785 267.121 56.5453 266.99 56.968 266.764L57.712 264.124Z" fill="black"/>
<path d="M170.728 195.856C170.784 194.773 171.096 193.719 171.638 192.781C172.18 191.842 172.938 191.045 173.848 190.456L327.652 101.656C328.619 101.165 329.688 100.909 330.772 100.909C331.856 100.909 332.925 101.165 333.892 101.656L337.408 103.684C338.314 104.277 339.067 105.074 339.607 106.013C340.147 106.951 340.459 108.003 340.516 109.084V231.34C340.456 232.42 340.143 233.472 339.604 234.409C339.064 235.347 338.312 236.145 337.408 236.74L183.592 325.6C182.626 326.086 181.559 326.338 180.478 326.338C179.397 326.338 178.33 326.086 177.364 325.6L173.848 323.572C172.942 322.979 172.187 322.181 171.646 321.243C171.104 320.305 170.789 319.253 170.728 318.172V195.856Z" fill="#38B792"/>
<g opacity="0.7">
<path d="M170.728 195.856C170.784 194.773 171.096 193.719 171.638 192.781C172.18 191.842 172.938 191.045 173.848 190.456L327.652 101.656C328.619 101.165 329.688 100.909 330.772 100.909C331.856 100.909 332.925 101.165 333.892 101.656L337.408 103.684C338.314 104.277 339.067 105.074 339.607 106.013C340.147 106.951 340.459 108.003 340.516 109.084V231.34C340.456 232.42 340.143 233.472 339.604 234.409C339.064 235.347 338.312 236.145 337.408 236.74L183.592 325.6C182.626 326.086 181.559 326.338 180.478 326.338C179.397 326.338 178.33 326.086 177.364 325.6L173.848 323.572C172.942 322.979 172.187 322.181 171.646 321.243C171.104 320.305 170.789 319.253 170.728 318.172V195.856Z" fill="white"/>
</g>
<path d="M171.64 192.784L180.484 197.884L339.604 106C339.077 105.054 338.322 104.254 337.408 103.672L333.88 101.656C332.919 101.159 331.854 100.9 330.772 100.9C329.691 100.9 328.625 101.159 327.664 101.656L173.848 190.456C172.922 191.027 172.161 191.829 171.64 192.784Z" fill="#38B792"/>
<path opacity="0.8" d="M171.64 192.784L180.484 197.884L339.604 106C339.077 105.054 338.322 104.254 337.408 103.672L333.88 101.656C332.919 101.159 331.854 100.9 330.772 100.9C329.691 100.9 328.625 101.159 327.664 101.656L173.848 190.456C172.922 191.027 172.161 191.829 171.64 192.784Z" fill="white"/>
<path opacity="0.1" d="M170.728 195.844V318.1C170.784 319.183 171.096 320.237 171.638 321.175C172.18 322.114 172.938 322.911 173.848 323.5L177.364 325.54C177.637 325.692 177.922 325.82 178.216 325.924C178.634 326.06 179.064 326.157 179.5 326.212C180.319 326.316 181.15 326.288 181.96 326.128L182.572 325.972L182.956 325.84C182.714 325.936 182.454 325.981 182.194 325.971C181.933 325.96 181.678 325.895 181.444 325.78C181.11 325.563 180.843 325.257 180.673 324.897C180.503 324.536 180.438 324.136 180.484 323.74V201.484C180.451 200.929 180.589 200.378 180.879 199.904C181.168 199.43 181.596 199.056 182.104 198.832L180.484 197.884L171.64 192.784C171.08 193.71 170.766 194.763 170.728 195.844Z" fill="#38B792"/>
<path opacity="0.05" d="M170.728 195.844V318.1C170.784 319.183 171.096 320.237 171.638 321.175C172.18 322.114 172.938 322.911 173.848 323.5L177.364 325.54C177.637 325.692 177.922 325.82 178.216 325.924C178.634 326.06 179.064 326.157 179.5 326.212C180.319 326.316 181.15 326.288 181.96 326.128L182.572 325.972L182.956 325.84C182.714 325.936 182.454 325.981 182.194 325.971C181.933 325.96 181.678 325.895 181.444 325.78C181.11 325.563 180.843 325.257 180.673 324.897C180.503 324.536 180.438 324.136 180.484 323.74V201.484C180.451 200.929 180.589 200.378 180.879 199.904C181.168 199.43 181.596 199.056 182.104 198.832L180.484 197.884L171.64 192.784C171.08 193.71 170.766 194.763 170.728 195.844Z" fill="black"/>
<path opacity="0.2" d="M180.484 197.884L254.344 225.484C256.9 226.439 259.705 226.495 262.296 225.642C264.888 224.789 267.111 223.078 268.6 220.792L280.456 202.612L339.604 106L282.82 203.284L340.516 231.376C340.462 232.482 340.127 233.555 339.544 234.496L282.64 203.584L268.864 225.64C267.334 228.091 264.971 229.908 262.209 230.757C259.446 231.606 256.471 231.429 253.828 230.26L244 225.928L181.42 325.78C181.086 325.563 180.819 325.257 180.649 324.897C180.479 324.536 180.414 324.136 180.46 323.74V321.7L243.688 225.796L180.484 197.884Z" fill="#38B792"/>
<path opacity="0.05" d="M180.484 197.884L254.344 225.484C256.9 226.439 259.705 226.495 262.296 225.642C264.888 224.789 267.111 223.078 268.6 220.792L280.456 202.612L339.604 106L282.82 203.284L340.516 231.376C340.462 232.482 340.127 233.555 339.544 234.496L282.64 203.584L268.864 225.64C267.334 228.091 264.971 229.908 262.209 230.757C259.446 231.606 256.471 231.429 253.828 230.26L244 225.928L181.42 325.78C181.086 325.563 180.819 325.257 180.649 324.897C180.479 324.536 180.414 324.136 180.46 323.74V321.7L243.688 225.796L180.484 197.884Z" fill="black"/>
<path d="M209.728 218.392C209.785 217.311 210.097 216.259 210.637 215.321C211.177 214.382 211.93 213.585 212.836 212.992L366.652 124.192C367.617 123.701 368.684 123.445 369.766 123.445C370.849 123.445 371.916 123.701 372.88 124.192L376.396 126.22C377.304 126.811 378.06 127.608 378.602 128.547C379.144 129.485 379.458 130.538 379.516 131.62V253.876C379.456 254.958 379.142 256.01 378.6 256.948C378.058 257.886 377.303 258.683 376.396 259.276L222.592 348.076C221.624 348.562 220.555 348.815 219.472 348.815C218.389 348.815 217.32 348.562 216.352 348.076L212.8 346C211.897 345.404 211.146 344.605 210.607 343.668C210.067 342.73 209.754 341.68 209.692 340.6L209.728 218.392Z" fill="#38B792"/>
<g opacity="0.5">
<path d="M209.728 218.392C209.785 217.311 210.097 216.259 210.637 215.321C211.177 214.382 211.93 213.585 212.836 212.992L366.652 124.192C367.617 123.701 368.684 123.445 369.766 123.445C370.849 123.445 371.916 123.701 372.88 124.192L376.396 126.22C377.304 126.811 378.06 127.608 378.602 128.547C379.144 129.485 379.458 130.538 379.516 131.62V253.876C379.456 254.958 379.142 256.01 378.6 256.948C378.058 257.886 377.303 258.683 376.396 259.276L222.592 348.076C221.624 348.562 220.555 348.815 219.472 348.815C218.389 348.815 217.32 348.562 216.352 348.076L212.8 346C211.897 345.404 211.146 344.605 210.607 343.668C210.067 342.73 209.754 341.68 209.692 340.6L209.728 218.392Z" fill="white"/>
</g>
<path d="M210.628 215.32L219.484 220.42L378.604 128.548C378.077 127.602 377.322 126.802 376.408 126.22L372.88 124.204C371.917 123.707 370.85 123.448 369.766 123.448C368.683 123.448 367.615 123.707 366.652 124.204L212.8 212.992C211.888 213.569 211.14 214.371 210.628 215.32Z" fill="#38B792"/>
<path opacity="0.6" d="M210.628 215.32L219.484 220.42L378.604 128.548C378.077 127.602 377.322 126.802 376.408 126.22L372.88 124.204C371.917 123.707 370.85 123.448 369.766 123.448C368.683 123.448 367.615 123.707 366.652 124.204L212.8 212.992C211.888 213.569 211.14 214.371 210.628 215.32Z" fill="white"/>
<path opacity="0.1" d="M209.716 218.38V340.636C209.774 341.709 210.084 342.754 210.619 343.685C211.155 344.617 211.902 345.41 212.8 346L216.304 348.04C216.581 348.192 216.87 348.32 217.168 348.424C217.586 348.562 218.016 348.658 218.452 348.712C219.271 348.816 220.102 348.788 220.912 348.628L221.512 348.46C221.641 348.425 221.765 348.376 221.884 348.316C221.649 348.418 221.396 348.471 221.14 348.471C220.884 348.471 220.631 348.418 220.396 348.316C220.063 348.095 219.797 347.787 219.627 347.425C219.458 347.063 219.392 346.661 219.436 346.264V224.02C219.404 223.466 219.541 222.914 219.831 222.44C220.12 221.966 220.548 221.592 221.056 221.368L219.436 220.42L210.58 215.32C210.042 216.252 209.745 217.304 209.716 218.38Z" fill="black"/>
<path opacity="0.4" d="M219.484 220.42L293.344 248.02C295.9 248.975 298.705 249.031 301.296 248.178C303.888 247.325 306.111 245.614 307.6 243.328L319.468 225.16L378.616 128.548L321.832 225.832L379.528 253.924C379.474 255.03 379.139 256.103 378.556 257.044L321.64 226.12L307.852 248.176C306.322 250.625 303.961 252.44 301.202 253.288C298.442 254.137 295.469 253.962 292.828 252.796L283.012 248.464L220.444 348.328C220.111 348.108 219.845 347.799 219.675 347.437C219.506 347.075 219.44 346.673 219.484 346.276V344.236L282.712 248.332L219.484 220.42Z" fill="#38B792"/>
<path opacity="0.05" d="M219.484 220.42L293.344 248.02C295.9 248.975 298.705 249.031 301.296 248.178C303.888 247.325 306.111 245.614 307.6 243.328L319.468 225.16L378.616 128.548L321.832 225.832L379.528 253.924C379.474 255.03 379.139 256.103 378.556 257.044L321.64 226.12L307.852 248.176C306.322 250.625 303.961 252.44 301.202 253.288C298.442 254.137 295.469 253.962 292.828 252.796L283.012 248.464L220.444 348.328C220.111 348.108 219.845 347.799 219.675 347.437C219.506 347.075 219.44 346.673 219.484 346.276V344.236L282.712 248.332L219.484 220.42Z" fill="black"/>
<path d="M249.04 241.912L409.096 149.512L415.504 153.208C416.378 153.78 417.106 154.549 417.629 155.454C418.152 156.358 418.456 157.373 418.516 158.416V276.496C418.458 277.54 418.155 278.555 417.632 279.459C417.108 280.364 416.38 281.133 415.504 281.704L261.472 370.624C260.542 371.093 259.514 371.338 258.472 371.338C257.43 371.338 256.402 371.093 255.472 370.624L252.076 368.668C251.202 368.096 250.474 367.326 249.951 366.422C249.428 365.518 249.124 364.503 249.064 363.46L249.04 241.912Z" fill="#38B792"/>
<path opacity="0.2" d="M249.04 241.912L409.096 149.512L415.504 153.208C416.378 153.78 417.106 154.549 417.629 155.454C418.152 156.358 418.456 157.373 418.516 158.416V276.496C418.458 277.54 418.155 278.555 417.632 279.459C417.108 280.364 416.38 281.133 415.504 281.704L261.472 370.624C260.542 371.093 259.514 371.338 258.472 371.338C257.43 371.338 256.402 371.093 255.472 370.624L252.076 368.668C251.202 368.096 250.474 367.326 249.951 366.422C249.428 365.518 249.124 364.503 249.064 363.46L249.04 241.912Z" fill="black"/>
<path d="M408.22 139.12L408.868 138.76L406.384 137.32C406.175 137.194 405.954 137.09 405.724 137.008L335.284 110.896C334.315 110.58 333.271 110.577 332.299 110.887C331.328 111.197 330.479 111.805 329.872 112.624L251.08 227.692C249.848 229.673 249.145 231.937 249.04 234.268V241.9L251.44 243.328L409.048 149.5V141.856C409.035 140.884 408.748 139.936 408.22 139.12Z" fill="#38B792"/>
<path opacity="0.1" d="M333.136 113.2C332.822 113.446 332.547 113.737 332.32 114.064L253.516 229.132C252.869 230.15 252.375 231.258 252.052 232.42L249.652 231.004C249.83 230.412 250.042 229.831 250.288 229.264C250.396 229.024 250.504 228.796 250.624 228.568L250.684 228.46C250.809 228.219 250.949 227.987 251.104 227.764L329.896 112.696C330.015 112.526 330.147 112.365 330.292 112.216L330.712 111.832L333.136 113.2Z" fill="black"/>
<path opacity="0.35" d="M408.844 138.748C408.631 138.618 408.406 138.51 408.172 138.424L337.72 112.312C336.946 112.054 336.118 111.998 335.316 112.15C334.514 112.301 333.764 112.654 333.136 113.176L330.736 111.76C331.369 111.243 332.121 110.893 332.924 110.742C333.727 110.591 334.555 110.644 335.332 110.896L405.772 136.996C406.002 137.082 406.223 137.19 406.432 137.32L408.844 138.748Z" fill="white"/>
<path opacity="0.2" d="M329.872 112.624C329.994 112.456 330.126 112.295 330.268 112.144C330.12 112.29 329.988 112.451 329.872 112.624Z" fill="black"/>
<path d="M332.32 114.04L253.516 229.108C252.293 231.092 251.595 233.355 251.488 235.684V243.328L411.544 150.928V143.296C411.487 142.261 411.141 141.262 410.545 140.413C409.949 139.565 409.127 138.901 408.172 138.496L337.72 112.324C336.754 112 335.711 111.992 334.74 112.3C333.769 112.609 332.922 113.218 332.32 114.04Z" fill="#38B792"/>
<path opacity="0.05" d="M411.544 143.272C411.512 142.315 411.217 141.385 410.692 140.584L252.052 232.396C251.715 233.452 251.529 234.551 251.5 235.66V243.304L411.556 150.904L411.544 143.272Z" fill="black"/>
<path d="M404.704 110.8C404.736 110.479 404.684 110.156 404.554 109.862C404.424 109.567 404.219 109.312 403.96 109.12L399.064 106.3C398.768 106.167 398.443 106.115 398.12 106.148C397.798 106.182 397.49 106.301 397.228 106.492L265.948 182.32C265.19 182.812 264.559 183.476 264.107 184.258C263.654 185.04 263.393 185.918 263.344 186.82V344.02C263.308 344.342 263.36 344.668 263.493 344.963C263.626 345.259 263.835 345.513 264.1 345.7L268.972 348.52C269.267 348.652 269.592 348.705 269.914 348.674C270.236 348.642 270.544 348.527 270.808 348.34L402.112 272.56C402.866 272.065 403.494 271.4 403.944 270.619C404.394 269.837 404.655 268.961 404.704 268.06V110.8Z" fill="#F0F0F0"/>
<path d="M270.82 348.4L402.112 272.56C402.866 272.065 403.494 271.4 403.944 270.619C404.394 269.837 404.655 268.96 404.704 268.06V110.8C404.704 109.144 403.504 108.472 402.112 109.3L270.82 185.128C270.066 185.623 269.438 186.288 268.988 187.069C268.538 187.851 268.278 188.727 268.228 189.628V346.828C268.228 348.52 269.392 349.192 270.82 348.4Z" fill="#FAFAFA"/>
<path d="M354.964 199.6C354.839 201.376 354.509 203.132 353.98 204.832C353.507 206.36 352.872 207.832 352.084 209.224C351.403 210.442 350.572 211.571 349.612 212.584C348.818 213.43 347.889 214.14 346.864 214.684C345.748 215.417 344.412 215.739 343.084 215.596C342.312 215.437 341.62 215.012 341.128 214.396C340.84 215.02 340.54 215.644 340.228 216.268C339.892 216.935 339.49 217.566 339.028 218.152C338.51 218.82 337.918 219.428 337.264 219.964C336.472 220.622 335.606 221.186 334.684 221.644C333.702 222.225 332.55 222.454 331.42 222.292C330.428 222.068 329.564 221.46 329.02 220.6C328.276 219.443 327.781 218.143 327.568 216.784C327.251 214.89 327.142 212.966 327.244 211.048C327.324 208.934 327.585 206.83 328.024 204.76C328.423 202.898 328.997 201.078 329.74 199.324C330.394 197.788 331.258 196.35 332.308 195.052C333.213 193.912 334.345 192.972 335.632 192.292C336.06 191.991 336.544 191.779 337.055 191.67C337.566 191.56 338.095 191.556 338.608 191.656C339.264 191.949 339.804 192.451 340.144 193.084V192.436C340.171 191.889 340.323 191.355 340.588 190.876C340.797 190.434 341.13 190.062 341.548 189.808L344.116 188.5C344.256 188.408 344.423 188.367 344.589 188.384C344.756 188.402 344.911 188.477 345.028 188.596C345.166 188.761 345.268 188.953 345.327 189.16C345.387 189.366 345.404 189.583 345.376 189.796L344.8 205.048C344.752 206.2 344.968 206.956 345.448 207.316C345.7 207.49 346 207.583 346.306 207.583C346.613 207.583 346.912 207.49 347.164 207.316C347.917 206.89 348.524 206.246 348.904 205.468C349.482 204.318 349.805 203.058 349.852 201.772C349.972 200.44 350.056 199.072 350.116 197.656C350.176 196.24 350.176 194.932 350.116 193.732C350.086 191.578 349.763 189.439 349.156 187.372C348.779 185.915 347.936 184.621 346.756 183.688C345.576 182.897 344.139 182.584 342.736 182.812C340.682 183.133 338.7 183.811 336.88 184.816C334.962 185.807 333.213 187.095 331.696 188.632C330.14 190.228 328.786 192.01 327.664 193.936C326.5 195.969 325.559 198.121 324.856 200.356C324.119 202.662 323.601 205.033 323.308 207.436C323.224 208.096 323.152 208.936 323.092 209.98C323.032 211.024 322.984 212.104 322.936 213.232C322.888 214.36 322.852 215.452 322.828 216.508C322.804 217.564 322.828 218.392 322.828 219.028C322.882 220.965 323.23 222.883 323.86 224.716C324.315 226.134 325.144 227.402 326.26 228.388C327.317 229.265 328.655 229.733 330.028 229.708C331.81 229.648 333.552 229.158 335.104 228.28C336.322 227.664 337.496 226.966 338.62 226.192C339.545 225.551 340.423 224.845 341.248 224.08C341.935 223.421 342.584 222.724 343.192 221.992C343.732 221.308 344.224 220.648 344.668 220C345.112 219.352 345.34 219.004 345.568 218.728C345.801 218.43 346.101 218.192 346.444 218.032L350.044 216.16C350.179 216.059 350.343 216.004 350.512 216.004C350.681 216.004 350.845 216.059 350.98 216.16C351.244 216.376 351.352 216.796 351.292 217.444C351.252 217.867 351.121 218.276 350.908 218.644C350.176 220 349.348 221.44 348.436 222.94C347.482 224.5 346.398 225.977 345.196 227.356C343.841 228.889 342.36 230.306 340.768 231.592C338.909 233.08 336.898 234.367 334.768 235.432C332.494 236.744 329.918 237.442 327.292 237.46C325.322 237.402 323.438 236.635 321.988 235.3C320.458 233.785 319.347 231.9 318.76 229.828C317.982 227.272 317.578 224.616 317.56 221.944C317.56 221.296 317.56 220.408 317.56 219.28C317.56 218.164 317.62 216.988 317.668 215.764C317.716 214.54 317.776 213.364 317.836 212.26C317.896 211.156 317.956 210.268 318.016 209.632C318.318 206.45 318.937 203.307 319.864 200.248C320.801 197.078 322.081 194.02 323.68 191.128C325.261 188.257 327.196 185.596 329.44 183.208C331.63 180.847 334.217 178.889 337.084 177.424C339.671 175.933 342.565 175.054 345.544 174.856C347.578 174.774 349.566 175.474 351.1 176.812C352.638 178.332 353.701 180.267 354.16 182.38C354.831 185.07 355.185 187.828 355.216 190.6C355.216 191.8 355.216 193.252 355.132 194.908C355.048 196.564 355.072 198.22 354.964 199.6ZM332.428 208.384C332.219 210.082 332.467 211.806 333.148 213.376C333.712 214.36 334.576 214.576 335.728 213.964C337.039 213.239 338.041 212.062 338.548 210.652C339.273 208.734 339.655 206.703 339.676 204.652C339.877 202.94 339.637 201.205 338.98 199.612C338.428 198.604 337.54 198.412 336.328 199.036C335.04 199.781 334.065 200.966 333.58 202.372C332.857 204.279 332.467 206.297 332.428 208.336V208.384Z" fill="#38B792"/>
<path d="M268.216 346.864C268.192 347.157 268.235 347.451 268.341 347.726C268.447 348 268.613 348.247 268.828 348.448L264.112 345.736C263.845 345.55 263.633 345.297 263.498 345.001C263.363 344.705 263.31 344.379 263.344 344.056V186.856C263.374 185.952 263.638 185.071 264.112 184.3L268.984 187.108C268.51 187.883 268.245 188.768 268.216 189.676V346.864Z" fill="#E0E0E0"/>
<path d="M414.46 278.056C414.412 278.141 414.356 278.222 414.292 278.296L347.584 257.2C345.051 256.082 342.2 255.916 339.555 256.731C336.91 257.547 334.647 259.29 333.184 261.64L261.868 367.6L259.228 369.124C258.934 369.329 258.593 369.457 258.237 369.497C257.881 369.537 257.52 369.487 257.188 369.352L330.52 260.152C331.989 257.808 334.25 256.068 336.893 255.251C339.536 254.434 342.385 254.593 344.92 255.7L414.46 278.056Z" fill="#38B792"/>
<path opacity="0.4" d="M326.608 271.984L326.776 271.84L261.868 367.6L259.228 369.124C258.933 369.326 258.592 369.453 258.236 369.493C257.881 369.532 257.521 369.484 257.188 369.352L324.04 270.4L326.608 271.984Z" fill="white"/>
<path opacity="0.4" d="M414.46 278.056C414.412 278.142 414.356 278.222 414.292 278.296L347.584 257.2C345.052 256.08 342.2 255.912 339.554 256.728C336.908 257.544 334.646 259.288 333.184 261.64L330.544 260.104C332.015 257.762 334.278 256.027 336.922 255.217C339.566 254.406 342.413 254.573 344.944 255.688L414.46 278.056Z" fill="white"/>
<path d="M418.456 157.66C418.312 156.796 417.856 156.556 417.256 156.964C416.959 157.185 416.7 157.453 416.488 157.756L416.152 158.224L350.332 258.28L340.504 271.972C339.871 272.77 339.033 273.38 338.08 273.737C337.126 274.095 336.093 274.186 335.092 274L326.608 271.984L261.808 248.152C261.373 248.063 260.924 248.063 260.488 248.152C260.319 248.186 260.154 248.238 259.996 248.308L262.396 246.892L324.484 269.692L332.656 272.608C333.657 272.796 334.691 272.707 335.645 272.349C336.599 271.992 337.437 271.38 338.068 270.58L347.896 256.9L414.04 156.376C414.242 156.102 414.494 155.87 414.784 155.692L409.06 152.392L411.46 151.012L415.42 153.292C416.191 153.781 416.857 154.42 417.378 155.17C417.9 155.92 418.266 156.767 418.456 157.66Z" fill="#38B792"/>
<path opacity="0.4" d="M350.332 258.28L340.504 271.972C339.871 272.77 339.033 273.38 338.08 273.737C337.126 274.095 336.093 274.186 335.092 274L326.608 271.984L326.776 271.84L327.184 271.192L332.74 272.512C333.741 272.7 334.775 272.611 335.729 272.253C336.683 271.896 337.521 271.284 338.152 270.484L347.884 256.948L350.332 258.28Z" fill="white"/>
<path opacity="0.1" d="M415.504 153.184L411.544 150.904L409.144 152.284L414.868 155.584C414.576 155.759 414.323 155.992 414.124 156.268L347.98 256.792L347.884 256.924L350.284 258.256L416.104 158.188L416.44 157.72C416.652 157.417 416.911 157.149 417.208 156.928C417.796 156.52 418.252 156.76 418.408 157.624C418.243 156.728 417.901 155.874 417.402 155.112C416.904 154.35 416.258 153.694 415.504 153.184Z" fill="black"/>
<path d="M263.2 250.06L249.076 241.912V363.46C249.136 364.503 249.44 365.517 249.963 366.422C250.486 367.326 251.214 368.096 252.088 368.668L255.484 370.624C256.414 371.093 257.442 371.338 258.484 371.338C259.526 371.338 260.554 371.093 261.484 370.624L263.176 369.652L263.2 250.06Z" fill="#38B792"/>
<path opacity="0.15" d="M263.2 250.06L249.076 241.912V363.46C249.136 364.503 249.44 365.517 249.963 366.422C250.486 367.326 251.214 368.096 252.088 368.668L255.484 370.624C256.414 371.093 257.442 371.338 258.484 371.338C259.526 371.338 260.554 371.093 261.484 370.624L263.176 369.652L263.2 250.06Z" fill="black"/>
<path d="M418.516 158.416V276.484C418.478 277.565 418.155 278.616 417.58 279.532C417.133 280.305 416.532 280.979 415.816 281.512L415.696 281.572C415.635 281.62 415.571 281.664 415.504 281.704L261.472 370.624C261.178 370.833 260.835 370.965 260.477 371.007C260.118 371.049 259.755 371 259.42 370.864C259.164 370.715 258.949 370.506 258.792 370.255C258.635 370.004 258.542 369.719 258.52 369.424C258.507 369.244 258.507 369.064 258.52 368.884V250.804C258.493 250.381 258.57 249.958 258.743 249.571C258.916 249.185 259.18 248.846 259.513 248.584C259.846 248.322 260.237 248.144 260.654 248.067C261.07 247.99 261.499 248.015 261.904 248.14L326.704 271.972L335.188 273.988C336.189 274.174 337.222 274.083 338.176 273.725C339.129 273.368 339.967 272.758 340.6 271.96L350.428 258.268L416.248 158.212L416.584 157.744C417.604 156.208 418.516 156.496 418.516 158.416Z" fill="#38B792"/>
<path d="M415.504 281.704L415.708 281.572L415.816 281.5C416.535 280.974 417.136 280.304 417.58 279.532C418.147 278.63 418.47 277.596 418.516 276.532L350.344 258.292L395.944 292.96L415.504 281.704Z" fill="#38B792"/>
<path opacity="0.2" d="M415.504 281.704L415.708 281.572L415.816 281.5C416.535 280.974 417.136 280.304 417.58 279.532C418.147 278.63 418.47 277.596 418.516 276.532L350.344 258.292L395.944 292.96L415.504 281.704Z" fill="black"/>
<path d="M258.46 368.884C258.416 369.268 258.48 369.658 258.646 370.007C258.811 370.357 259.071 370.654 259.396 370.864C259.729 371.002 260.093 371.054 260.451 371.014C260.81 370.974 261.153 370.844 261.448 370.636L314.5 340L326.62 271.972L258.46 366.916V368.884Z" fill="#38B792"/>
<path opacity="0.15" d="M333.148 261.568L259.396 370.864C259.071 370.654 258.811 370.357 258.646 370.007C258.48 369.658 258.416 369.268 258.46 368.884V366.928L330.46 260.128L333.148 261.568Z" fill="black"/>
<path d="M417.58 279.532C417.136 280.304 416.535 280.974 415.816 281.5L415.708 281.572L261.472 370.624C261.177 370.832 260.834 370.962 260.475 371.002C260.116 371.042 259.753 370.99 259.42 370.852L333.184 261.544C334.661 259.183 336.939 257.433 339.602 256.615C342.264 255.797 345.132 255.967 347.68 257.092L417.58 279.532Z" fill="#38B792"/>
<path opacity="0.15" d="M249.604 230.98L252.004 232.396C251.664 233.46 251.474 234.567 251.44 235.684V243.316L249.04 241.9V234.256C249.075 233.143 249.265 232.041 249.604 230.98Z" fill="black"/>
<path d="M262.48 246.844L260.032 248.26L257.56 246.832L251.476 243.328L253.84 241.924L262.48 246.844Z" fill="#38B792"/>
<path opacity="0.1" d="M262.588 246.892L253.84 241.924L251.44 243.328L257.524 246.832L259.996 248.26L260.464 248.116C260.899 248.027 261.348 248.027 261.784 248.116L266.8 250L323.332 270.82L324.22 269.512L262.588 246.892Z" fill="black"/>
<path d="M441.952 117.664L484.396 90.4841L503.104 96.4841L441.952 117.664Z" fill="#38B792"/>
<path d="M441.952 117.664L478.636 87.064L470.488 77.656L441.952 117.664Z" fill="#38B792"/>
<path d="M478.636 87.064V94.168L441.952 117.664L478.636 87.064Z" fill="#38B792"/>
<path opacity="0.25" d="M478.636 87.064V94.168L441.952 117.664L478.636 87.064Z" fill="black"/>
<path d="M484.756 86.476C484.575 86.476 484.398 86.4215 484.249 86.3196C484.099 86.2177 483.984 86.0731 483.918 85.9047C483.852 85.7363 483.838 85.5519 483.878 85.3755C483.919 85.1992 484.011 85.039 484.144 84.916C485.401 83.7531 486.561 82.4888 487.612 81.136C487.681 81.0354 487.77 80.95 487.873 80.8848C487.976 80.8196 488.092 80.7761 488.212 80.7569C488.333 80.7377 488.456 80.7433 488.574 80.7731C488.692 80.803 488.803 80.8567 488.9 80.9308C488.997 81.0049 489.078 81.098 489.138 81.2044C489.198 81.3107 489.235 81.4281 489.248 81.5495C489.262 81.6708 489.25 81.7935 489.214 81.9102C489.178 82.0268 489.119 82.135 489.04 82.228C487.928 83.6624 486.7 85.0029 485.368 86.236C485.2 86.3874 484.982 86.4726 484.756 86.476ZM491.512 77.512C491.37 77.5145 491.23 77.4815 491.104 77.416C490.999 77.3638 490.905 77.2912 490.828 77.2024C490.751 77.1136 490.692 77.0104 490.655 76.8988C490.618 76.7871 490.604 76.6693 490.613 76.5521C490.622 76.4349 490.654 76.3207 490.708 76.216C491.756 74.1268 492.561 71.9244 493.108 69.652C493.164 69.4197 493.309 69.219 493.513 69.0941C493.717 68.9692 493.962 68.9303 494.194 68.986C494.426 69.0417 494.627 69.1874 494.752 69.3911C494.877 69.5948 494.916 69.8397 494.86 70.072C494.294 72.4785 493.448 74.8104 492.34 77.02C492.263 77.1721 492.144 77.299 491.997 77.3861C491.851 77.4732 491.682 77.5169 491.512 77.512ZM494.8 64.828C494.682 64.8234 494.566 64.7955 494.458 64.7459C494.351 64.6964 494.254 64.6261 494.174 64.5392C494.094 64.4522 494.031 64.3503 493.99 64.2393C493.95 64.1282 493.931 64.0102 493.936 63.892C493.936 63.4 493.936 62.92 493.936 62.44C493.935 60.5862 493.778 58.7357 493.468 56.908C493.447 56.7914 493.45 56.6718 493.475 56.5562C493.501 56.4405 493.549 56.331 493.617 56.234C493.685 56.1371 493.772 56.0544 493.872 55.9909C493.972 55.9274 494.083 55.8843 494.2 55.864C494.437 55.8257 494.679 55.8824 494.875 56.0216C495.07 56.1609 495.203 56.3716 495.244 56.608C495.568 58.5351 495.733 60.4858 495.736 62.44C495.736 62.944 495.736 63.46 495.736 63.964C495.731 64.0822 495.703 64.1984 495.654 64.3058C495.604 64.4132 495.534 64.5099 495.447 64.5901C495.36 64.6703 495.258 64.7327 495.147 64.7735C495.036 64.8143 494.918 64.8329 494.8 64.828ZM492.868 51.856C492.68 51.8559 492.496 51.7968 492.343 51.687C492.191 51.5772 492.076 51.4223 492.016 51.244C491.24 49.0318 490.264 46.8949 489.1 44.86C488.996 44.6542 488.973 44.4169 489.035 44.1949C489.097 43.9728 489.24 43.7821 489.436 43.66C489.641 43.5534 489.879 43.5287 490.102 43.5911C490.325 43.6535 490.516 43.7982 490.636 43.996C491.852 46.1295 492.869 48.3711 493.672 50.692C493.719 50.8066 493.743 50.9298 493.74 51.0538C493.738 51.1778 493.71 51.3 493.658 51.4126C493.606 51.5253 493.532 51.6261 493.439 51.7085C493.346 51.791 493.238 51.8535 493.12 51.892C493.031 51.8899 492.942 51.8778 492.856 51.856H492.868ZM486.556 40.324C486.419 40.3236 486.284 40.292 486.162 40.2317C486.039 40.1714 485.932 40.084 485.848 39.976C484.408 38.1136 482.827 36.3644 481.12 34.744C481.01 34.6728 480.917 34.5785 480.848 34.4677C480.778 34.3569 480.734 34.2323 480.717 34.1025C480.701 33.9727 480.713 33.8409 480.752 33.7163C480.792 33.5916 480.858 33.4771 480.947 33.3807C481.035 33.2843 481.144 33.2083 481.264 33.1581C481.385 33.1079 481.515 33.0846 481.646 33.0898C481.777 33.0951 481.905 33.1288 482.021 33.1886C482.138 33.2484 482.239 33.3328 482.32 33.436C484.095 35.1213 485.739 36.9385 487.24 38.872C487.366 39.0571 487.419 39.2826 487.388 39.5045C487.357 39.7265 487.244 39.9288 487.072 40.072C486.929 40.2133 486.743 40.3021 486.544 40.324H486.556ZM477.16 31.108C476.965 31.1089 476.775 31.0457 476.62 30.928C474.729 29.5086 472.754 28.2062 470.704 27.028C470.508 26.906 470.366 26.7144 470.306 26.4918C470.246 26.2691 470.272 26.0319 470.38 25.828C470.498 25.6277 470.689 25.4816 470.914 25.4211C471.138 25.3605 471.377 25.3903 471.58 25.504C473.692 26.7179 475.728 28.0605 477.676 29.524C477.827 29.6374 477.939 29.7954 477.995 29.9757C478.051 30.156 478.049 30.3494 477.99 30.5286C477.93 30.7078 477.815 30.8637 477.662 30.9741C477.509 31.0846 477.325 31.144 477.136 31.144L477.16 31.108ZM382.852 27.628C382.653 27.6296 382.459 27.5653 382.301 27.4451C382.142 27.3249 382.028 27.1557 381.976 26.9638C381.924 26.7719 381.937 26.5682 382.013 26.3844C382.089 26.2007 382.224 26.0472 382.396 25.948C384.484 24.748 386.644 23.62 388.84 22.576C388.947 22.5254 389.063 22.4963 389.181 22.4906C389.3 22.4849 389.418 22.5026 389.53 22.5428C389.641 22.5829 389.744 22.6447 389.831 22.7245C389.919 22.8044 389.99 22.9007 390.04 23.008C390.092 23.1149 390.123 23.2311 390.129 23.3499C390.136 23.4687 390.118 23.5876 390.078 23.6995C390.038 23.8114 389.975 23.9141 389.895 24.0015C389.814 24.0888 389.716 24.1591 389.608 24.208C387.46 25.228 385.336 26.332 383.296 27.508C383.157 27.5884 383 27.6299 382.84 27.628H382.852ZM465.844 24.4C465.711 24.4023 465.58 24.3736 465.46 24.316C463.324 23.284 461.128 22.336 458.92 21.484C458.805 21.4418 458.7 21.3767 458.612 21.2926C458.523 21.2085 458.452 21.1072 458.404 20.9949C458.356 20.8827 458.331 20.7617 458.331 20.6395C458.331 20.5173 458.356 20.3963 458.404 20.284C458.446 20.1693 458.511 20.0644 458.595 19.9757C458.679 19.887 458.781 19.8164 458.893 19.7681C459.005 19.7198 459.126 19.6949 459.248 19.6949C459.371 19.6949 459.492 19.7198 459.604 19.768C461.848 20.632 464.092 21.604 466.276 22.66C466.456 22.7507 466.601 22.8994 466.686 23.0822C466.772 23.2649 466.794 23.4712 466.748 23.6678C466.702 23.8644 466.592 24.0399 466.435 24.1662C466.277 24.2925 466.082 24.3621 465.88 24.364L465.844 24.4ZM394.72 22C394.539 21.9969 394.363 21.9406 394.213 21.8382C394.064 21.7358 393.948 21.5918 393.88 21.424C393.832 21.3117 393.807 21.1908 393.807 21.0686C393.807 20.9463 393.832 20.8254 393.88 20.7131C393.928 20.6008 393.999 20.4996 394.088 20.4155C394.176 20.3314 394.281 20.2662 394.396 20.224C396.64 19.348 398.956 18.544 401.272 17.824C401.501 17.7556 401.748 17.781 401.958 17.8947C402.169 18.0083 402.325 18.2009 402.394 18.43C402.462 18.6592 402.437 18.9061 402.323 19.1165C402.21 19.327 402.017 19.4836 401.788 19.552C399.52 20.224 397.252 21.016 395.056 21.868C394.949 21.9105 394.835 21.9309 394.72 21.928V22ZM453.52 19.6C453.433 19.6172 453.343 19.6172 453.256 19.6C451 18.916 448.684 18.316 446.368 17.812C446.249 17.7837 446.137 17.7321 446.038 17.6604C445.939 17.5887 445.855 17.4981 445.79 17.3939C445.661 17.1835 445.621 16.9303 445.678 16.69C445.735 16.4497 445.886 16.2421 446.096 16.1127C446.306 15.9833 446.56 15.9427 446.8 16C449.2 16.516 451.528 17.128 453.832 17.836C453.946 17.8703 454.051 17.9267 454.143 18.0021C454.235 18.0774 454.311 18.1702 454.367 18.2751C454.423 18.3799 454.457 18.4948 454.468 18.613C454.479 18.7313 454.467 18.8506 454.432 18.964C454.374 19.1477 454.259 19.3082 454.103 19.4225C453.948 19.5368 453.761 19.5989 453.568 19.6H453.52ZM407.32 18.028C407.117 18.0279 406.92 17.9591 406.761 17.8327C406.602 17.7063 406.49 17.5299 406.444 17.332C406.394 17.0983 406.437 16.8541 406.565 16.6521C406.693 16.4501 406.895 16.3064 407.128 16.252C409.468 15.712 411.868 15.256 414.268 14.908C414.388 14.8813 414.513 14.8797 414.635 14.9033C414.756 14.9269 414.871 14.9752 414.973 15.0452C415.075 15.1152 415.161 15.2054 415.226 15.3102C415.292 15.415 415.335 15.5322 415.353 15.6544C415.371 15.7766 415.364 15.9012 415.332 16.0205C415.3 16.1398 415.243 16.2512 415.166 16.3478C415.089 16.4444 414.993 16.5241 414.884 16.5819C414.775 16.6398 414.655 16.6745 414.532 16.684C412.132 17.032 409.828 17.476 407.524 18.016L407.32 18.028ZM440.704 16.648H440.572C438.232 16.3 435.844 16.048 433.48 15.892C433.355 15.8954 433.23 15.8726 433.114 15.8251C432.998 15.7776 432.893 15.7063 432.806 15.616C432.72 15.5256 432.653 15.4181 432.61 15.3003C432.567 15.1826 432.549 15.0571 432.557 14.9321C432.566 14.807 432.6 14.6851 432.658 14.5742C432.717 14.4632 432.797 14.3656 432.896 14.2876C432.994 14.2097 433.107 14.1531 433.228 14.1215C433.35 14.0899 433.476 14.0839 433.6 14.104C436 14.26 438.4 14.512 440.8 14.86C441.022 14.8965 441.222 15.0146 441.361 15.1912C441.5 15.3679 441.568 15.5902 441.552 15.8144C441.535 16.0386 441.435 16.2485 441.272 16.4028C441.108 16.5571 440.893 16.6446 440.668 16.648H440.704ZM420.4 16C420.161 16.0096 419.928 15.9239 419.753 15.7619C419.577 15.5998 419.473 15.3747 419.464 15.136C419.454 14.8973 419.54 14.6646 419.702 14.4891C419.864 14.3135 420.089 14.2096 420.328 14.2C422.728 14.008 425.188 13.9 427.6 13.9C427.839 13.9 428.067 13.9948 428.236 14.1636C428.405 14.3324 428.5 14.5613 428.5 14.8C428.5 15.0387 428.405 15.2676 428.236 15.4364C428.067 15.6052 427.839 15.7 427.6 15.7C425.2 15.7 422.8 15.808 420.472 16H420.4Z" fill="#E0E0E0"/>
</svg>
