<svg width="81" height="80" viewBox="0 0 81 80" fill="none" xmlns="http://www.w3.org/2000/svg">
<g clip-path="url(#clip0_115_669)">
<path d="M53.8333 26.7249C53.8427 22.4078 52.8038 18.1529 50.806 14.3259C48.8081 10.4988 45.9109 7.21408 42.3633 4.75384C38.8158 2.29361 34.724 0.731451 30.4395 0.201605C26.155 -0.328241 21.8059 0.190064 17.7659 1.71199C13.7259 3.23391 10.1158 5.71394 7.24581 8.93899C4.37582 12.164 2.33175 16.0377 1.28922 20.2271C0.246687 24.4164 0.236876 28.7963 1.26063 32.9903C2.28438 37.1843 4.31109 41.0671 7.1666 44.3049V71.7249C7.16658 73.2948 7.60997 74.8327 8.44571 76.1615C9.28145 77.4904 10.4755 78.5562 11.8905 79.2361C13.3054 79.9161 14.8836 80.1825 16.4434 80.0048C18.0031 79.8271 19.4809 79.2124 20.7066 78.2316L26.1266 73.8983C26.4219 73.6624 26.7887 73.534 27.1666 73.534C27.5445 73.534 27.9113 73.6624 28.2066 73.8983L33.6266 78.2316C34.8523 79.2124 36.3301 79.8271 37.8899 80.0048C39.4496 80.1825 41.0278 79.9161 42.4427 79.2361C43.8577 78.5562 45.0518 77.4904 45.8875 76.1615C46.7232 74.8327 47.1666 73.2948 47.1666 71.7249V44.3049C51.4609 39.4556 53.8323 33.2024 53.8333 26.7249ZM27.1666 6.72494C31.1222 6.72494 34.989 7.89792 38.278 10.0955C41.567 12.2932 44.1304 15.4168 45.6442 19.0713C47.158 22.7258 47.554 26.7471 46.7823 30.6267C46.0106 34.5064 44.1058 38.07 41.3087 40.8671C38.5117 43.6641 34.948 45.5689 31.0684 46.3406C27.1888 47.1124 23.1675 46.7163 19.5129 45.2025C15.8584 43.6888 12.7348 41.1253 10.5372 37.8363C8.33958 34.5474 7.1666 30.6806 7.1666 26.7249C7.1719 21.4222 9.28074 16.3382 13.0303 12.5887C16.7799 8.83907 21.8639 6.73024 27.1666 6.72494ZM39.5566 73.2183C39.2746 73.358 38.9582 73.4135 38.6455 73.378C38.3327 73.3425 38.0368 73.2176 37.7933 73.0183L32.3733 68.6849C30.8981 67.4967 29.0608 66.8487 27.1666 66.8487C25.2724 66.8487 23.4351 67.4967 21.9599 68.6849L16.5433 73.0183C16.2987 73.2146 16.0037 73.338 15.6921 73.3741C15.3806 73.4103 15.0651 73.3578 14.7821 73.2227C14.499 73.0876 14.2598 72.8754 14.092 72.6105C13.9241 72.3455 13.8345 72.0386 13.8333 71.7249V49.7849C17.8798 52.1468 22.4812 53.3915 27.1666 53.3915C31.852 53.3915 36.4534 52.1468 40.4999 49.7849V71.7249C40.5037 72.0384 40.4166 72.3461 40.2492 72.6111C40.0818 72.8761 39.8412 73.087 39.5566 73.2183Z" fill="#38B792"/>
</g>
<defs>
<clipPath id="clip0_115_669">
<rect width="80" height="80" fill="white" transform="translate(0.5)"/>
</clipPath>
</defs>
</svg>
