<svg width="80" height="80" viewBox="0 0 80 80" fill="none" xmlns="http://www.w3.org/2000/svg">
<g clip-path="url(#clip0_125_444)">
<path d="M66.3333 26.7249C66.3427 22.4078 65.3038 18.1529 63.306 14.3259C61.3081 10.4988 58.4109 7.21408 54.8633 4.75384C51.3158 2.29361 47.224 0.731451 42.9395 0.201605C38.655 -0.328241 34.3059 0.190064 30.2659 1.71199C26.2259 3.23391 22.6158 5.71394 19.7458 8.93899C16.8758 12.164 14.8317 16.0377 13.7892 20.2271C12.7467 24.4164 12.7369 28.7963 13.7606 32.9903C14.7844 37.1843 16.8111 41.0671 19.6666 44.3049V71.7249C19.6666 73.2948 20.11 74.8327 20.9457 76.1615C21.7815 77.4904 22.9755 78.5562 24.3905 79.2361C25.8054 79.9161 27.3836 80.1825 28.9434 80.0048C30.5031 79.8271 31.9809 79.2124 33.2066 78.2316L38.6266 73.8983C38.9219 73.6624 39.2887 73.534 39.6666 73.534C40.0445 73.534 40.4113 73.6624 40.7066 73.8983L46.1266 78.2316C47.3523 79.2124 48.8301 79.8271 50.3899 80.0048C51.9496 80.1825 53.5278 79.9161 54.9427 79.2361C56.3577 78.5562 57.5518 77.4904 58.3875 76.1615C59.2232 74.8327 59.6666 73.2948 59.6666 71.7249V44.3049C63.9609 39.4556 66.3323 33.2024 66.3333 26.7249ZM39.6666 6.72494C43.6222 6.72494 47.489 7.89792 50.778 10.0955C54.067 12.2932 56.6304 15.4167 58.1442 19.0713C59.658 22.7258 60.054 26.7471 59.2823 30.6267C58.5106 34.5064 56.6058 38.07 53.8087 40.8671C51.0117 43.6641 47.448 45.5689 43.5684 46.3406C39.6888 47.1123 35.6675 46.7163 32.0129 45.2025C28.3584 43.6888 25.2348 41.1253 23.0372 37.8363C20.8396 34.5474 19.6666 30.6806 19.6666 26.7249C19.6719 21.4222 21.7807 16.3382 25.5303 12.5887C29.2799 8.83907 34.3639 6.73024 39.6666 6.72494ZM52.0566 73.2183C51.7746 73.358 51.4582 73.4135 51.1455 73.378C50.8327 73.3425 50.5368 73.2176 50.2933 73.0183L44.8733 68.6849C43.3981 67.4967 41.5608 66.8487 39.6666 66.8487C37.7724 66.8487 35.9351 67.4967 34.4599 68.6849L29.0433 73.0183C28.7987 73.2146 28.5037 73.338 28.1921 73.3741C27.8806 73.4103 27.5651 73.3578 27.2821 73.2227C26.999 73.0876 26.7598 72.8754 26.592 72.6105C26.4241 72.3455 26.3345 72.0386 26.3333 71.7249V49.7849C30.3798 52.1468 34.9812 53.3915 39.6666 53.3915C44.352 53.3915 48.9534 52.1468 52.9999 49.7849V71.7249C53.0037 72.0384 52.9166 72.3461 52.7492 72.6111C52.5818 72.8761 52.3412 73.087 52.0566 73.2183Z" fill="#38B792"/>
</g>
<defs>
<clipPath id="clip0_125_444">
<rect width="80" height="80" fill="white"/>
</clipPath>
</defs>
</svg>
