<svg width="45" height="45" viewBox="0 0 45 45" fill="none" xmlns="http://www.w3.org/2000/svg">
<path d="M33.6667 2H10.3333C8.12401 2.00289 6.00593 2.9616 4.4437 4.66585C2.88147 6.37011 2.00265 8.68074 2 11.0909L2 32.9091C2.00265 35.3193 2.88147 37.6299 4.4437 39.3341C6.00593 41.0384 8.12401 41.9971 10.3333 42H33.6667C35.876 41.9971 37.9941 41.0384 39.5563 39.3341C41.1185 37.6299 41.9974 35.3193 42 32.9091V11.0909C41.9974 8.68074 41.1185 6.37011 39.5563 4.66585C37.9941 2.9616 35.876 2.00289 33.6667 2ZM10.3333 5.63636H33.6667C34.6646 5.63851 35.6392 5.96639 36.4649 6.57783C37.2906 7.18926 37.9298 8.05627 38.3 9.06727L25.5367 22.9927C24.5974 24.0133 23.3257 24.5863 22 24.5863C20.6743 24.5863 19.4026 24.0133 18.4633 22.9927L5.7 9.06727C6.07025 8.05627 6.70936 7.18926 7.53508 6.57783C8.3608 5.96639 9.33536 5.63851 10.3333 5.63636ZM33.6667 38.3636H10.3333C9.00725 38.3636 7.73548 37.789 6.7978 36.766C5.86012 35.7431 5.33333 34.3557 5.33333 32.9091V13.8182L16.1067 25.5636C17.671 27.2659 19.7904 28.2219 22 28.2219C24.2096 28.2219 26.329 27.2659 27.8933 25.5636L38.6667 13.8182V32.9091C38.6667 34.3557 38.1399 35.7431 37.2022 36.766C36.2645 37.789 34.9927 38.3636 33.6667 38.3636Z" fill="#38B792"/>
</svg>
