<svg width="81" height="80" viewBox="0 0 81 80" fill="none" xmlns="http://www.w3.org/2000/svg">
<g clip-path="url(#clip0_115_673)">
<path d="M80.3133 42.23L70.21 13.3633C68.81 9.35667 65.0133 6.66333 60.77 6.66333H43.8333V3.33333C43.8333 1.49333 42.3433 0 40.5 0C38.6567 0 37.1667 1.49333 37.1667 3.33333V6.66667H20.23C15.9867 6.66667 12.19 9.36 10.79 13.3633L0.686667 42.23C0.563333 42.5833 0.5 44.3367 0.5 44.3367C0.5 52.69 6.73667 59.56 14.7 59.9767C18.8367 60.2067 22.8133 58.74 25.8267 55.88C28.8 53.06 30.5 49.0933 30.5 45C30.5 45 30.43 42.56 30.2967 42.1933L19.8133 13.36C19.95 13.3433 20.09 13.3333 20.23 13.3333H37.1667V73.3333H17.1667C15.3233 73.3333 13.8333 74.8267 13.8333 76.6667C13.8333 78.5067 15.3233 80 17.1667 80H63.8333C65.6767 80 67.1667 78.5067 67.1667 76.6667C67.1667 74.8267 65.6767 73.3333 63.8333 73.3333H43.8333V13.3333H60.77C60.91 13.3333 61.05 13.34 61.1867 13.36L50.7 42.1933C50.5667 42.5567 50.4967 45 50.4967 45C50.4967 49.0967 52.2 53.06 55.17 55.88C57.9867 58.5533 61.2633 59.9767 66.3 59.9767C74.27 59.9767 80.4967 52.69 80.4967 44.3367C80.4967 44.3367 80.4367 42.5833 80.3133 42.23ZM15.0467 53.3233C11.4433 53.1333 8.42667 50.3167 7.49333 46.6667H23.6667C23.3333 48.33 22.5 49.8467 21.2367 51.0433C19.5633 52.6333 17.3567 53.44 15.05 53.32L15.0467 53.3233ZM22.4067 40H8.53L15.3367 20.5567L22.4067 40ZM65.6633 20.5567L72.47 40H58.5933L65.6633 20.5567ZM65.9567 53.3233C63.6633 53.4433 61.4433 52.6367 59.7667 51.0467C58.5033 49.8467 57.67 48.33 57.3367 46.67H73.51C72.5767 50.3167 69.5633 53.1367 65.96 53.3267L65.9567 53.3233Z" fill="#38B792"/>
</g>
<defs>
<clipPath id="clip0_115_673">
<rect width="80" height="80" fill="white" transform="translate(0.5)"/>
</clipPath>
</defs>
</svg>
